<mxfile host="65bd71144e">
    <diagram id="lDnDVOYAQRRcY3yLA4Cn" name="Page-1">
        <mxGraphModel dx="1040" dy="674" grid="1" gridSize="10" guides="1" tooltips="1" connect="1" arrows="1" fold="1" page="1" pageScale="1" pageWidth="827" pageHeight="1169" math="0" shadow="0">
            <root>
                <mxCell id="0"/>
                <mxCell id="1" parent="0"/>
                <mxCell id="5" value="Sistem" style="shape=image;verticalLabelPosition=bottom;labelBackgroundColor=none;verticalAlign=top;aspect=fixed;imageAspect=0;image=data:image/png,iVBORw0KGgoAAAANSUhEUgAAAgAAAAIACAYAAAD0eNT6AAAABHNCSVQICAgIfAhkiAAAAAlwSFlzAAAOxAAADsQBlSsOGwAAABl0RVh0U29mdHdhcmUAd3d3Lmlua3NjYXBlLm9yZ5vuPBoAACAASURBVHic7N15lFxXdS/+7zl3qrmqB3WrNc+yLc/YxoNsI2PAzCGAYzwRxoSVBBbhlzl5z2+FFxLeyvhLVmISxwFLgicI4CQ4MbZ/jdWScbAM2HLbkrpbUkvqUT3WXHc6vz+qJbekHmq4VffWrf1Zy5PcfWt3dd179pn2AQghhBBCCCGEEEIIIYQQQgghhBBCCCGEEEIIIYQQQgghhBBCCCGEEEIIIYQQQgghhBBCCCGEEEIIIYQQQgghhBBCCCGEEEIIIYQQQgghhBByMeZ2AISQ6jx6aDgUzWc2MptvsJi9gYG3CybamBBtELwdXKyAQBwMHALx4ncxFRDhuUtkARTm/j0JwILAJBimADEpGJtkgk0yJkaFLU4yWR4sFHDyE7s25uv/0xJCnEIJACEN4on9J7uYZFzFLXaNzdnVENjKIDYC6HAjHgGMMuAkGF6DYK8JgddU2K/ee8fWs27EQwgpDyUAhHjQ490nEopi3cIEbgVwC4BrALS7HFapxgXDS0zgRTAcVIzCS/fu2pF2OyhCyIUoASDEA/b0DLYwpr/DFuwuDtwmgCsAcLfjcogJhsMQ6OGC/dDIpX/08LuuybgdFCHNjhIAQlwghGB7Dwxcz4B7BPBuADcDkNyOq04KAA4wgadtwf7rwTs3H3Y7IEKaESUAhNTR3gN9O4TAQwB7CMAqt+PxBIaTEPg3xti3P3bbpoOMMeF2SIQ0A0oACKmxPfuP3wQu7oMQHwGw1u14PG5AQHxbtsU37rtz2xtuB0OIn1ECQEgN7HtmIG4ExC8B7HOAuNbteBrUywC+lmfmNz+187KU28EQ4jeUABDioCcOHL+dQXyWFXv7Abfj8Yk0wP4vt+2/+9idW3/mdjCE+AUlAIRU6REh+LYD/e8VYL+P4mI+UjsHAfHXysiW7957L7PcDoaQRkYJACEV2v1iX4wb+LQA+zyA9W7H02T6BMRfq1Lgn++9dW3O7WAIaUSUABBSpscOHIkGhPwFAF8CkHA7niY3ArA/UyT1a5QIEFIeSgAIKdGjh4ZDkVzuM4D4PQCdbsdDLjAOsL9QJPVvKBEgpDSUABCyjEcPHVKi2cSvCoY/ADX8nsaAISHwh323b/7GI4zZbsdDiJdRAkDIEvb0DNzNIP5SAFe6HQspy0+ZEL95/x1bn3c7EEK8ihIAQhbwxIHj27lt/wUY3uN2LKQq35W4+O37bts64HYghHgNJQCEzLPvhdNB3cr/Dwb2JQCK2/EQR+QZ8OVUcOarv3LDDYbbwRDiFZQAEDJn74GBnULY/wiwy9yOhdTEMTD86gM7t3S7HQghXkAJAGl6j3efSGiy9VUBfBp0T/idLcD+AYr9ew/evDXpdjCEuIkedqSpzS3y+xcBrHY7FlJHDCdt8Icf2rmpx+1QCHELJQCkKT166JASycX/AGB/BIC7HQ9xhQ3gb5XWwm/du2OH7nYwhNQbJQCk6Xzr+WOXWxLfA4Hr3I6FeADDYWGxBx68c/Nht0MhpJ6o50Oayu6egU9anL9MjT85T+AqxvHjvT0DH3M7FELqiUYASFN46qk+bTrKvgrg827HQjzta0pr4TdoSoA0A0oAiO99/YWjq2VL+g7oqF5SmkPg/CMP3LZp0O1ACKklSgCIrz1x4PjtXNjfAdDhdiykoYwxLj50/21bf+x2IITUCq0BIL61p6fvo1zYPwQ1/qR8ncJm3bsPDNzvdiCE1AolAMSX9vQMfAFg3wIQcDsW0rA0JsTuPT19j7gdCCG1QFMAxFe6u7vlIXnt3zLgV9yOhfgHg/jnVHD2V+ksAeInlAAQ39j3wumgYRX+FcC73Y6F+A8T+LdEWtz7nvdsLbgdCyFOoASA+MI3nn4lLIXC3wdwt9uxEP9iwI9yzPzAp3ZelnI7FkKqRQkAaXiPd59IKLL1Awbc6nYspBmInyhS4N333rp2yu1ICKkGJQCkoe3tPtouZOlpANe7HQtpKi+bqvGuj7/18km3AyGkUpQAkIa175mBuBEQzwK4we1YSDNiPwfkux64ff2025EQUgnaBkga0qOHhkNmQPw7qPEnrhHXQhg/2NfdG3E7EkIqQSMApOHMrfb/AYBdbsdCCIDndFN63yd2bcy7HQgh5aARANJQHj10SJnb6keNP/GKt2uS9X+7u7tltwMhpByUAJCGEs4l/l/QPn/iMYLhA8Pyun9wOw5CykEJAGkYew70/xFV+CPeJT61e3//b7sdBSGlojUApCHsPtD/S0zgm6DPLPE2IRh78MGdm/e6HQghy6GHKfG8Pc8fuwOc/xCA5nYshJQgx7h4Ox0lTLyOEgDiaU/sP9nFmfkygC63YyGkDGOmZL3l47duH3I7EEIWQ2sAiGc9euiQwpn5bVDjTxpPp2xJ39nX26u6HQghi6EEgHhWNJf4OwC3uR0HIRW62ZjSvup2EIQshqYAiCft6el7CGDfcDsOQhzw8Qdu30KfZeI5lAAQz9l7oG+HEOwlAEG3YyGkeixjM/aWh3ZuOup2JITMR1MAxFOeeqpPE4LvBjX+xDdEmAt7L60HIF5DCQDxlOko/xNAXOt2HIQ47Hp9SvsfbgdByHw0BUA8Y0/PwN2AeBqUmBJ/spkQd91/x9bn3Q6EEIASAOIRj3efSGiy9ZoAVrsdCyG1w04Ixb72wZu3Jt2OhBDqaRFP0GTrq9T4E/8TG5nB/8TtKAgBaASAeMDe/X13Csa6QZ9H0hxsIXDHg3dsOeh2IKS50QgAcdVTT/VpguEfQI0/aR6cM/zDo4cOKW4HQpobJQDEVVNRPAKwy9yOg5B6EsCVkWz8t9yOgzQ36nUR1zxx4Ph2LuzDAKgnRJpRXuLiyvtu2zrgdiCkOdEIAHENF/Zfghp/0rwClsCfuR0EaV40AkBcMbfn/xm34yDEdbZ95wN3btvvdhik+dAIAKm77u5uGRB/5XYchHiCxP/qESHoWUzqjj50pO5GpLWfA7DD7TgI8QSB67YcHHjI7TBI86EpAFJX33j6lbAUCg8A6HQ7FkI85IxuSls/sWtj3u1ASPOgEQBSVzwY/jVQ40/IxdYosvkpt4MgzYVGAEjd7OvujRiyNgCgw+1YCPGgEUXSNt9769qc24GQ5kAjAKRuDEX7IqjxJ2QxXaZZ+LTbQZDmQSMApC52v9gXYwYbBJBwOxZCPGxYN6XNtBaA1AONAJC64AY+DWr8CVnOKlWyP+F2EKQ5UAJAaq67u1sWYF9wOw5CGgITX6S6AKQe6ENGam5IWXcvgHVux0FIg9i65cDx97gdBPE/SgBIzTFhU++fkDIwJr7odgzE/2gRIKmpJw4cv50Lm+qcE1Iubl/3wG3bfu52GMS/aASA1BSD+KzbMRDSkAT/NbdDIP5GIwCkZh7vPpFQZWsIQMjtWAhpQGnFLHTdu2tH2u1AiD/RCACpGVW2HgY1/oRUKmJI2kfcDoL4l+x2AKS+9u3vW1Hg0mVcWBvA2AYmxAYBvkJAtDGgDcW/JICpgAgXv4tlAKEDsABMCmCSgU0y2GcFYychxEnG+AnZto/ee8fWs+dei0F8UtAgEyGVY/gUgH9xOwziT/R09rG9Lx7vhG7fYnPcymx2jWDiagasrPHLjkCww2BiDAAdcUpIdYTN+OUP7dx01O1AiP/QCICPPHbgSFQT8t0MuAfALmHYW8EAJgCwuvXFu8BEV31eihDfYxz2wwD+wO1AiP9QAtDg9u3vW2Fy9otC4KMQuAOA4nZMhBAHCXwUlACQGqApgAb01FN92kyU/6IQ+GUwcRcokSPE12zwax+6fdMrbsdB/IUajgay5/mBrZDwuWlbPAyINkrfCGkOHPZHAFACQBxFCUAD2NPT/xYAXwDE/RCQqOEnpOl8FMAfuR0E8RdqSjxsz4H+XRD4YwC3uR0LIcRdjIkr79+5tdftOIh/0AiAB+0+0HczE+xPILDL7VhI4yiAYRQaJpmCJJORlWRYXIbFOYTEwSQJnBdzfsYZOGOwbQHdsJBOFzA1nQV0HWEOBLlAiANRbiMhAXHZRosk0CbZkKjb4ApbsHsAUAJAHEMJgId8/YWjq2VL+goEHgSNzpAlpARHPw/hLNeQk1UIVYWsymAXfWo4li73yTlDQJMR0GS0tYYxPpXF4EgSQoi5r5Auup5AmyzQqdjolAVWKxbWKgIaF5denDiKQbwLwJ+7HQfxD2pkPODRQ4eUaC7x2wL4fVDpXLKAlJDwuhTGuBSEGdCgqMoljb1TkmkdR05OzUsClsYBrJBtrFdtbNYsbFJtSghqI58Ohtp+5YZVWbcDIf5ACYDL9hw8di1s/hiA692OhXjLoNBwVI4gEwhBCag1a/AXMjaZwcnhZEXfyyGwVrWxTbOwI2CjVbYdjq55MeDd99++5b/cjoP4A00BuGRfb6+qT2tfho3fxMXjrKRpDQkVvUoUmWAYqlas6aS6EEdHaxhjk1nkCmbZ32uDYVCXMKhLeCYFdMk2dgQtXBU00SLRyEBVhHgXAEoAiCMoAXDB3hdOXGZMWXsY9foJAJ0x/JxFMRyIQQlpANxp9OdjDOhoDWFwpLJRgPlGTI6RFMdzaQVrFRvXBk1cEzSh0Phj2QRjt7sdA/EPugXrbG/PwCcExN+C5vqb3jgUHJITMKIRyJL3TubO5k0c7ju7/BdWIMgFbgyZeGvIRJRGBcphKmah5d5dO9JuB0IaH40A1MlTT/Vp01H2VQHxebdjIe4aQACvaS2QIkEwxjx7E2pq7WamcjbD/rSCgxkFVwZM7IyY6KS1AqWQC7J6A4AfuR0IaXxeffb4yt4Xj3dOG/b3AdzsdizEPYPQ8HOtFXI01Bg3Xh065pYAXsnJeDUnY5tm4a6YgS5KBJbEBW4FJQDEAQ3xHGpku/f3XSFM+wcANrgdC3HHGaHh5UArpEgIcgNNuhUMq26vJQAcLUg4NiHhSs3C3TEDLRIlAgtiuMXtEIg/UAJQQ0/09L2NgX0PAgm3YyH1lxYcB5Q2mPEo5Hru4XNIMl2o+2sKARzOS+gtcNwUsnBX1ECA0RqBC7G3uB0B8YfGeyo1iN0H+t/NBP4VQNDtWEh92QI4ICUwHW/x5OK+UggBHO47W9E2QCeFucA7YjquC1r0sJpHEaLj3ju21maFJmkajfl08ri9PX3vZwLfAzX+TWcYKp4Mr0Gqta1hG3+gWAjI7cYfADI2w/dnNPzzZABnzcZ9P51WYNjhdgyk8dEd5bC9+wc+LMC+C0BzOxZSPzYYnuFteLl1DdRQY//qZ9MFnBqtfv+/kwZ1jr+fCKAnrYBWBgCcsSvdjoE0PloD4KDdB/veKWyxB/S+NpUxoeCFcCfUkNbQGbUQxZ7/qdEkSjwGoK5MATyTUvBGgeMjcR2tsgeDrBeBq9wOgTQ+aqgc8kRP39uYzZ4E9fybykEWw2RrG1TemE2/bQvkdQvJdAHjU5WV/q23M7qEv58M4L0xA9cGvR9vjVzhdgCk8VEC4IBvPX/scqs47B9wOxY3aLKEglm/LWNeoIPhh0oHWDziuYMcCrqFXMFEQTeR1y3ohgXDtGFZNkzThi0AWwjYduP2oAs2w3dnVAwUOD4Q15uurHBQkbZW8/37nhmI6yFs45a93WbsMga2DRBrwRCGQBhAC4Dw3JdnAEyDIQOBDMBOC4hjXIgjtsSPqlkcu/cdm2er/ZlI/TXZbeO8vd1H24Uk/RgMW9yOxQ2cMbREVEym6r9lzC1nhYwDkS6oQbcr9gOGYSGVNZDK6khnDeTyBqwGbtgr0aXY+FiLjkQT1Q1oiwWEZodbd13XMlPK1+/r7o0YcuBmwL4bYHcDuA7OrgE7DuBZQDwLqM8+cPv6aQevTWqEEoAq7OvtVY0p7Xk0cYU/TZHQHgtgaDLjdih1cQQhHE10QpbdGfIXQiCZ0TGTKmA2VWiIIft6CHOBj7UWsE5pjiRgTXsEwhJ3ve3Kru7Fvubx7hMJVbbuZcCDArgV9Tt11AJjB4UtdhuW9O1P7NpYUpJC6o+mAKqgT2l/w5q48QcAReYI1LBmvJe8hBhG29pdKeozmypgcjaH6dkCTLs5GrlyZGyGf5kI4BcSBVwd9P90VFCVkC1Y1wK4IAF4RAi+vef4uy0mHmawPgAg4MJ4kAQh7mAMd6iy9Te7e/r/jTH29b7bNv3XI4zRh9dDaASgQnOn+v2z23G4rTWiYVVbGK8NTrkdSk09y1uRb2lBPdv+gm5hfDqLs9M5GHUsy9vIGIC7ozpuj/h7ZOSqDa2YSen/eMcVKz8LFBv+bQf63yvAHoF3jxnvBfDVVebpvbt27fL3L6hBUAJQgW89f+xyi/NDoCN90ZkIYnVbGK+emPJlz1QA+C+pHXZLvG6vmczqGD2bwUwq78nteI1gZ9jEO2K6Lx9wssRx9YZWTKRzT5tDR943Iq35ZcHY7wLY7HZsJRHoBxd/uso483VKBNzlx/ujph49dEiJZBMHwXCj27F4wZr2CDriAfSPJJHM6m6H4ygbwH/KHUAiWpfXm0kVMDSeQjpr1OX1/O7GkIn3xfS6jtrUQzysYvPKGKZT+tET48kUgBvcjqkSDOIVW7Bfe/COLQfdjqVZ0RqAMoXzif9Njf+bFKn4dA0HZF8lALYA/kPthBSP1Py1kmkdp8dSSPvo/fOCl7IyLMHwwXjBV0lAWJt7bDOx3d1IqiPArmEMPXt6+ndbHP/Pw7dtGXc7pmbTmNVLXLL74MCNTOA33Y7DS87Vuz//UPIBAeAppaPmjb9u2hg4PYM3TkxS418jP81JeDKpwU8zKaFA8V5r5LMm5mEAHpIsvL5nf98H3Q6m2fjiE1QP3d3dMhPiUdRvK01D4HM9q3MPJT94Wl4BVuNh/9GJDF49No6JmVxNX4cAP81K+K+k+zUbnBLWFAAA89OwBkMbGPvenp7+v97X2+ufX5bHUQJQohF57e9A4Dq34/AaPvcQkjlHQGn83OhZ3gorEavZ9dNZHa/1T2BwJAnL8lO/1Nt+nJHRk278JDWoSZDmsm7uo/Z/DgPweWNK7flm94kNbgfTDCgBKMHu7r41Auz33I7Di9i8p1A01NiJ+09EBPmWlppcWwjgzHgarx+fRCZHi/zc8GxKxSu5xk5SowHl/L/7MAGYw26yZfPlvQf7bnE7Er+jBKAUMvsqIMLLf2Hz4fOGIaNBZYmv9LYjIoixto6aLBYzTBtHT05haCxF2/pcJAA8OavhlNG4j73ovPLTnDXuz7E81ips/szenv573I7Ez/z8CXLE3oN9tzDgPrfj8Kr5DWY0qDTkausxIeNoy0rwGnSpZtMFHO47i9l085yV4GWmAL45pWHWasAPKmOIzEuyG/QAyjKIsACe3Nsz8DG3I/Er33+EqiVs9r9B9RIWNX8EQOIMIbWx5ll1wfBCpKsmtf3PjKVw9OQUDNN/BZIaWcZm2DOtwWiw0ZiwJp+f/wd8tghwcaqA2L1nfz91wmqAEoAl7H2+/y4Au9yOw8uki55BsQZbB/C02uH4qX5CAMfPzGJoPE1D/h41avCG2xkQD104xebfNQCX4GD4xp79fe9yOxC/aazuWp0Jjv/ldgxeJ8AuGB5JRFSMTGddi6ccB1kM3OG9/pYQ6B+cxowLxyNzBqwKcKwKMrRrDC3Km/9MqAwRufi7Cs/d9RG5+JtLm2Lunzj/39O6wIwhMFEQmJ7753BOYDhvwy+nDb+UlbFOtXFNsDGq0SbC2kV/0jwZAAAFjH1378G+u++/beuP3Q7GLygBWMQTB47fDmHvdDsOrxO48DEUVGVoioSCxw+vGYOKyUSbo0UdTMvGscFppDK1L+oTkoErohI2hjk2hBnWhjjWhVhFJxWeSwQi558Gi1/DEAJnsgKDWRuDGYHjGRuvJy3kvP3rXtS/zypYq1holb2d1WiKdMmpm96OuCZCwmZPfrP7xE0f27XxpNvB+AElAIvgsL/kdgyNQNjiknmAeEjB+Kx3WwQbDC+EOqA6WElNNywcOTGFXKE2vcmYwrAjxnFlXMKVMY4NYX7J9Es9KIxhY5hhY5gDK4p/ZgngRMZGb9LG4VkLvbM2UmZjNE+6YPjurIZPtuU9PR+aCF86XSGac35phS1Z+/b19u68d8cOKp9ZJUoAFrDn+YGtEOL9bsfRCGwISBf1GONhDeOzeZciWt5zvBVq6OLh1MqZll2Txr8zwHBzq4QbWyVcFZPg1cqvEgO2RDi2RDg+uEqGLYAjKQs/mbLx4qSFMzlvL4I8pXMcSMu4w8NHCMcvGf5v2gQAYLjRmAp8BQB10qpECcBCJHwOwtMdAs9Y6BkUCSpQZQ7dg6vfh4SCfCLu2C/XtgWODU471vh3Bhje3iHjlnYJG0ON+RHkDLgiJuGKmIRf3qDgeKaYCDw3bmIs781G60cpFZcHLKzw4FSAKnOEFyi17Ze1GJURX9y7v7/n/ju2fN/tSBpZU60iKcW+3l7VmNLO4PwAJ1nKjnUt0BYoATw0mcGYx+rc2wJ4MrzGsd6/EMCxwamqF/zJjOHmNo67OmS8pUVyZWi/HmwBvDpr4f8bN3FwwkLBY/nhBtXCJ9oKnnsodiaCWN12aR2ygmGh99S0CxF5hMAks6zL7t+1fcLtUBoVjQBcxJwKfBgQ1PiXyFqkG9ISDXguATggJRwd+j9+Zqaqxr9dY/iFVQre3ikhKnut2XEeZ8C1CQnXJiR8eqPAc+MWnhw2MFHwRlf2pC7hZzkJ1we9tX6lNRpY8M/N5h4CABjahCJ9BcBn3A6lUTXmGGMNCYFfdjuGRmLaC3fjQqqEoOaduuspcEzHnavzf2YsVfFJfl1Bhs9uUvC1twTwC6vlpmj8LxZTGD60WsZjbwniS9tUrPXIdMczSRV54Z3fR0iTEVQXvo9My2NDKG4Q+CSdGVA5b9x1HrG3+2g7mLjL7TgayVIn2rVGFu65uGG/3O7Y+enJtI7hs+myv29rhOMPL9fw6PVBfGCVArWJKrksRuLArg4Zf3ddAH9wuYYtEXcfSRmbYX/KOwOjrdHFR6wWG31rMlwI9mh3d7d3fmkNhBKAeWxF/ghoWqQsS/VC2mMBT1QrOyM0CIcK/hiGhf7T02VV+GvXGH59i4o/vyaAm9skT7wnXsMZcEubhL+8NoDfvUzDyoB7b9KLGQXTlvuPRs6AtkWG/wHApOOkiwSuGpLXPex2GI3I/U+5hzAhPuJ2DI1mqXlIiTO0RJybc6/Uy4FWR+qmCwEMnJ4tubZ/QALuX1cc6r9npUwNfwkYgJ3tEv7hLQF8dpOCsAsrIk0Az6TcP9myJRq4oPb/xSyaAjiPQfw+jQKUjxKAOY8dOBIFcLvbcTQaY5leyIqYu9MAx0UAUiTkyLWGxlOYzZS26G9Xh4x/viGI+9fRUH8lZMbwgVUK/vGGAHZ11P+53puXMGq6+3tb7t6hNQAX2Dwir/uo20E0GkoA5mhCvhtAY50O4gG6ufSK6VBAQUhzLzF/NdjqyBHF6Wzp8/6/slnBl7apiCnU8FcrpjB8aZuKz2yq760pBLA/7d4oQCn3TcGDdTbcJCD+8BEhqE0rA71ZczjwbrdjaES6sfxDqCPuzijAAAJQIkFHrnVyOFnSvP+HVyt4f5f7w8d+88FVMj60ur6JZG9exrjhziOys4R7Rvf4eRsuuGLLwQE6MbAMlADMEQCt/q+AbixfAa8lokGV6/9Re01zZtvf6EQGmZyx7Nd1BhgeWE/TkLXy4HoVK7T6jaoIARzI1v/3qSkSWhao/X8xL1badBsToMWAZaAEAMDeF493AtjsdhyNyBaAscxcJGMMHQln5uFLNQ4FkgO9f8O0cWY8VdLXvqdLpvn+GtI4cM/K+jbIr+YkpKz6/k474kEsN29lWDbsZj0LYGm/8Hj3iYTbQTQK6q4AEKa4ze0YGplu2FCW2WPfHgtgdDpbt4VLh+SEIyv/B4eTS9Y6mO+mFm8UPprUBU5lbZzO2pgsAFOGwJRuY0oHDFsgPTdok547sW/+ccAKZ2hVgVaVo1VhaNMwd9QwR5vqfnLz1lYZTwwuPxrjFFsw/CQr4+3R+rymInG0lbBwlob/FxVQFfPDAB5zO5BGQAkAAAFxs/uPtsZVMMwFDyuZjzOgIxbA8HS29vGAwYhGqv5wJ9M6JmdLq/bHGbAqUP8BtaQh8HrSxuGkhb6UwGDGRqbM/eHnEoFiYiBwOgsAlyZqYYlhQ5hhS5TjqriEK6K87gsdV4eK73U9a+C8lJVxZ9Soy8NyRaK02hl5nYb/F8MEexCUAJSEEgAATIhr6VykyuX00nojHYkgzibzy04ZVOunLOZI1b/TY8myvr4ex/VaAuidtfHfUyZ+NmPhdFagXm1hxhLoTQr0Jm08OWSCAVgbYrguIeHmNhlXxHjNDzKSndjSUaaszXAkJ+PKYG2PC5YljhWx0qatcnr9RkEajQB27n6xL/bgzVvLu4GbECUAAAB2tdsRNLJcobQEgHOGjngQQ1OZmsYzGoxWvZ9zJlVAOlv6Q9YWQMoUNanrbwng5WkLByZMvDRlI2V6Y+5XADiVFTiVNfHksImozHBTG8fONhnX1+hUw5QhXDkG96c5qeYJwMqW0JKFf+YrNeluUrKk89sB/MDtQLyu6ROAH/7s9NbZnNGpU1GNiuVK2AlwzopEAGeTuZqtYB4SqiMn/g2VuPBvvteTNt7a6tw6gNG8wDNjJp4dMzGpe6PRX0rKFHhuzMJzYxbaVIZ3dMp4R6eMTgfL+r6edOc+HdAlzFoMcak2vwdF4mgvo2hWnhKAJQkmdoESgGU1fQIgKdKdISGgZ3S3Q2lYhmnDtOySht05Y+hMhHB6ovzDdErRK8eqvkYqo5fV+z/nmTHTkQTgtVkb3zlj4Kczliu9XSdM6gLfOm1g3xkD17dI+OhqBTvi1c+RPDtW2174YoQAXslJuCNSm9fvag2VXCratOyaT6M1OsFoW3cpmn4boCSxq8MBKtxS91sKzgAAIABJREFUrXKGJNtjGgJqbXLPTKj67YYjE5VNUfxkysKxVGUPZlsAL05Z+NKrefzu4TwOTTdu4z+fLYBDUxZ+53Aev/VKAf89ZVW8ZuGNlIWfTLvX8309X5vPbFCV0L7EqX8Xy+ruJEENReCaufLuZAmUADBsc7NUrV9k8qX3mBljWNsedjyGk9CgatUlcwXdwkwqX9H32gL4s6MFzBjlNXGHZ2188ZU8vvx6AUddGuKuhzdSFv749QJ+8+d5vDZb3s85pQt85Q3d1aRo2OCYMp1/ZK5uDy+773++TJ4SgBLwgJC3uR2E1zV9AiBLfG1Ikx2pF9/M0mU+lKJBBfGQs/Xdj8nVH/k7Pp0t66jfi43lBX7rlQJOZ5dv4M7kbHz59QJ+73AeA2n/NvwX60vb+N3DeXz5jQLO5Jb/ufvTNn7n1QKmPLAO4vWCs4/MRFhFLFjefZAuoSolAdriwbe7HYPXNX3XV5Z4m8QZNEWihTVVyOQNCFFWRwZr2sNInjYgHKpoltFCVa/+Pztd2r7/pYzkbfzGzwp4b5eEd3YqWB9+802xBTCQsfEfIwZ+dNZCM0/lvjhp4aVpC3d3yHhfl4yN4Qsb1xMZG/85auKHoxZMj1S9O5aXsDPsTA+cMVbs/ZdBCCBboBGA5TDGENWkewB81e1YvKzpEwDOWQgAogGFEoAqWLZA3rAQVEtfBKcpEjoTQYw6UBwoKTjUMntSF5tJFWA4VGHNFAJPDhe3x8UUhnaVgTNgJCfKLtTjZ5YNPD1q4ulRE5oEdAUYOBjG8t58n04ZHAWbQePVx7ayJQhNLm/RaF43YflhcUiNhTQZksQ2uR2H11ECwLgKALGwirPJyuZ+SVE6b5SVAABAV0sQMxkd+SoXNr3Oqx/+nyqx6l+5koZAssx1Ac2oYAEnMwKoW2mj8tmC4aTOsT1QXaIYmEt+y5UuY61NMwtrMhRZcuY0MB9r+jUAjAkZAGJBpeQiHGRhlcxNMsawzoEFgWeV6g7+EUJgOlmoOg7if/16dVs9GYB1HVHwChYeJWn+vySRoAKZ8eoLgvhc0ycAEi+2+owxxBxelNZsklkdlaygiwSVsoqgLMTUqrvXkxm9bgcVkcZ2qsqFgO3xICLLnJ2xECEEjQCUgDGGaFABk5g3TufysKZPANi8QwDiJZzBTRZn2QLpEssCX2x1WxiKXNnHMSU4FLW67X+z1PsnJRozi+sAKqEqHKtaK6tVkc6bJZ9M2cxioeJoLgcoAVhG0ycAnM1LAIIqGB0KVJVktrKKihJn2NgZq2g7Zj8PVb2NcyZNCQApjQ1gyCz/A8cArF8RrXiqsdJ7q9kk5kZyOT3Ml+XbRYD7nhmIGxrbDmZtF2DbGdg2QKxlQEQAIQAtAMLzTwGUJIZYSMEs3WgVS2b1ins4kYCMjngQYzPlLcY7y6ubPjAMCzmfba0KycC6oIT1YYZ1QY42jaFVBVoUjqhS3K4Znjut59xxwCkDmDZsTOnAZEFgMGtjMGfjdNZG1l9vT9WGdAmb1PKmjDpbQogGKx+pogRgeYyxC0Zy9/T0LzdkogPIAJgGQwYCGYCdFhDHuBBHbIkfVbM4du87Ns/WMm63+CYB2NfdGzHkwM2AfTfA7jYgrgMEx/k+vZj39zcJXHgQcHssQAlAFbIFE7plQ63wbNxVrSGksjqyZWzJzMlqVR/kVKbx51UjMsN1LRxXRiXsiEtYF2Il15aPzJ1gGJGBruClo6a2KJ7691rSxGuzNn4+Y59PGprVWJkVAUOajK6Wyheq6qZNJwCWoCWsnj+TpMTtkurcXy1vNg7iZgZAMAZmCxgBYE9P/3EAzwLiWUB99oHb10/XIPy6a+gEYE/PYAtjxr1C4CEDuBkQEsoc9RG2wPxzS2MhFarMa3ZaXTOYSevoiFfWK2eMYUNnFEeGZmGXuN/ZrrL8byrXmAlfQmW4vU3Gze0cV8Wkkhv8cnEGbAgzbAgreF9Xce/+4aSFFydtHJgwyy597AfjRukJQHF6KwpWxTzVNE1RlaR93nPH4XoJmwB8FmCfBQxrb0//CwLYrZvSvk/s2jjj5AvVU8PNkTwiBN9y4Ph7OPBxAfF+AFUt/75qQyuUi3qro1NZDDtQnKZZhTUF29fEq7rGdLqAE2PLH8mbB8OzbZuqWgPQOzCJdIOM+nAGXJ+Q8M6VMt7aIqHCgRbHmELgvydt/HDMxM8a+PTCckkM+KPOHDhb/gfe2BlFS6S6XSpHz8wg47NpKqcFVBlXrE2c/++cbuGN0zXvqOcB9u9c4OtHb9/0n48w1lA9x4ZJAB4Rgm890P9hgD0C4AqnrrtjXQs05cJhT8O08dqpacdK1DajK9e3Qq1wVf85pyYymFimOM8gAnitfXVVr3Po9VHPr66WOHBnu4SPrlGwNuTNtbsjOYH/GDHwn6MW9CbIBD6/Iod2eemfsyMewJr26opUFQwLvad8MeJcU+s7omibd6piOm/g2FBdp+5fB/Bnq8zTe3ft2tUQ2ZrnE4Du7m55WF77SQC/g+IwjKO2r45joeOAj48lMZNujF6hF61uC1dU6Ww+IQT6hpNL7n3+KYtipK2j4tcoFCz8/Nh4xd9faxID7uqQ8cB6Be2q529XAMBEQWDvKQPPjpu+HhF4uLWALdri8/KhgILtq2NV7ywam8lhaLKyI6qbhaZI2LE2ccFhJNOZAk6MLj+KWAMDTIg/7bLO/IvXEwFvdiXm7D0wsHNYWftTAI+iBo0/AJiLPKE649U1Xs3OiTlLxopzp/ISIwlJXt0yFi+frX5NXMJfXRfAF7aqDdP4A0C7xvD5rSr+6toAron7dyv2tLX470SRODatjDqyrXgqRfP/y1nVGrrkJLJChTVJHLBZMPaPw/Lal3fv77/NrSBK4ckEYN8Lp1v39PT/tRDieQhcVcvXWqz6WzigUGXAKmQLJnIONK6KzLFlZWzRBW7ZKhMA3YMJgMSBz25S8OWrNGz06HB/KTaFOb58lYbPbFJrtkDRTTPWwr8bzoDNK6MV74SZz6n7yM+CqoTEAmss8g4d7FWFqxlDz56e/m9842B/5cOUNeS5p8ueAwO/aFj5PgCfRx3iKyyx2r/S/eykaGLWmZ5LSJOxviO64P8zq0wAvHYCJAPw61tUfGCV4v35uRIwAB9cJeM3tvgvmU4u8tFZ3xFFaIFpxUpM0gFly1rTHlnwXvFAAgAUb4GHJAuv79nf90G3g7mYZxKARw8dUvb09P0phPgOwFrr9bq6sXgCENJkJKg8cMWmMnnH5oBbIhq6FkjIbF7dR1j3xkPivLd1yHhHR0Pvzl3QOzpl3NHur58rJy5tdla1hqpe8X+OLYAp2v63pPZYYMHiSgLFxZOewdAGxr6/p6f/0X29vZ5pVDyRAOzpObYpkku8ALDfQZ0XJurG0sNrq1rDvuiJucGyBGbSzvVgulpCaLvo0CAhVTfHbHio3gNnwMfXO9Nz9KKPb1B8NRWQvah9WRELYGWLc6OG0+mC03vZfUWWOVa3LXySaL5gevW9+6wxpfZ84/kjG90OBPBAArD74MCNAH8RwA1uvH5+iREAAAioElqi1ZWabWYTDg9hrmuPXDAqw6ocAbA8dALgFTGOds1HLeRFOgMMl0ddf+Q4Jive/FlaIhrWrKhuu9/FJmZp+H8p61ZEFj1XwdvHJrObJC4d2nuw7xa3I3H1bty9f+DtzBbPAVjhVgymZS/bC1zTGqr4AI9ml86byDp4hCljwMaVUcSCcwd+VPl7MT00ArA94t8V8+ds9VECoM91MKMhBRs6Fp6HrlSmYCJT8HIj5q7ORPD8oT8LSXk6AQAA1ips/szenv573IzCtbtx94GB+xkT/wlg4dVddbTcKltZ5ljVuvBQE1ne2IyzPRkGho0rowhrctWnAFoeKvbU6uPe/zmtin8SAEswhAMKNnfGqirzu5DxMg/EaiahgIJVbUtMtQiBjIOdjtoRYQE8ubdn4GNuReDK3bjnwMADTIgnAHhiwrOUQzba4wFEHFrZ22xmsgXHF+RInGFLV/ySvb/l8lD7j7zHqxE6oeDNedmKWALY0hWrehTqYgXDwkyGFv8tRJE4NncuXV8hlffs/P9CVAGx260koO4JwO79A2+HEI+58dqLWarS3DkMwLqOiOOZfjMQAji7TEnfSkgSq/r34aVyz4MZ78RSKyez3plyqZYJ1GRqcHw276nE1CskzrC5KwZlmRLj06mGWzvBBcTX3ZgOqOu+nD37j98EZn8fVR7g47RMvrRCGwFFwspEECN0UFDZJlMFdLWGHX9g2kJAqjAJsCzhqQftz2eLNfRVB9+jjCXQn7ZxLGWjP21jRhdImQJpE8jMHekblhkiMhCVGRIqw5YIx7Yox5YIR1hyLpaCDbw6458EoBZdAdOyMdl4DVjNnasKGtKWbrJsITCdacgS7ooA/nXvwb67779t64/r9aJ1SwD29BzbBNg/AODsUlkHmJaNgmFdcijQQla2BJHMGrRAp0yWLTA2k3O8uJJhWJCWeSgsxlP7hAEkDYFnxyy8p6u62/J01sbzExYOTlg4k7WxXI5T0AWmdABzX3lwovi+MABrQhw72yXcsULC2mB1g3bPjZlImR7KuKok1yADyBsW1q2IYHA85ank1E2MARs6IyVVZp3N6I00/H+xkLDZk9/sPnHTx3ZtPFmPF6zLMPyjhw4pAN8DoL0er1eJUleNMlZcgCZXuf2sGY3P5mA4vO0uU8VcadKDRVa+ftLAWL78B1jeAr4/ZOI3fpbH536ax7dOGThdQuO/FIFiMvHNUwY+93Ien/9ZHk8OmchXkDedztr4l8GG7JktSnF4NMu0bIQ0Ba0RDRs6nDlHoNExxrCxI4aWcGmDxj44N2GFLVn76lUsqC6tWDif+HMAN9fjtSo1W8Z58KrMsaHDcwMZnmfbwvHVzcnZXEU9JSGA8SnvTeVkLIFHXi9gvFDaD1Wwge8NmfjUoRz+6YSOE5naDbEfz9j4xxM6Pn0oh+8PmSiU+FKjeYEvv6Ej67OS9lWedn2JvG6dL5TUEtGwpSvW1NuPz52pkIiU1hbmdRPJMp7jnsVwozEV+Eo9XqrmCcDenr73M4Ffr/XrVCuVM8paEBYLq+hsoRMDy3V2Nudo9T1mmhU15GOTGeQK3myRTmdt/OYreXQvcZxuwQb+bdjAZw7l8NgJHbNG/YY9ZwyBfzqh4zOHcviPEQPGIveNZQPPjVn4ws9zGMr5Z+7/nKCDZRsMy77k/IBoSMGWVTHIDhwq1GhkiWPr6nhZB7KNTOeqGvHyFvHF3T39H6r1q9Q0vfzGwf4OyRZv1LO2fzW2roovWFd6UULg2PAs0iUuIiRF7fEg1rU7U1fhiz/Poz8jsH1jC+IlDhPOpgs4enKqIeZYV2gMt7ZJWBfiCMsMs4ZAX9rCT6ZsJOvY6C8loTC8ta24RqBNZUgaAmdyAgcmTUzr3oixFrZFOf7iGmeqhKZzBiKLPHt0y8aJ0VSD7G2vXliTsXFlDGoZQywF08Lrp6Yb4p4umcAks6zL7t+1faJWL1HTRYCyha8K1hiNP1CsvV1WAsAYNq2M4djQrFdOnmoIk8kcVkQDCGrVd6FiCoMQNo6emMb6rig6WsOLlgYQotjzPzWabJgHxdmCwJPD3k4wZwyBp0e9HWMtxBVn+k8Fw0J4iRojqsSxbXUMZyayNdlO6yUd8SBWt4XK3t47Op1tmHu6ZAxtQpb/FMCna/USNRtb2ntgYKdgeLhW16+FmYxedmUYWeIl7U0lbxICODOZduRasbmHsBACJ4eTONx3FqMTGWTzJmxbwLYFsnkToxMZHO47i8GRxmn8ibfFHKoLZguxbD0rBoa17WFsWunPZ4069xxd0x4uu/HPFkw/LP5bhPhkLc8MqMkIQHd3tzwi7L+tukxbnZmWjWTOKGveCQA0RcKWruJIQANvQamrVM7ATFZfsp53KRIXPYRzBRODI8mqrklIKRIOjABk8ibCgdIfw4mwimigBUNTGccP2nJLS0Rb8mCfpQgAp89m/JzUMyHYo93d3dfv2rXL8WG2mqSSw/LaTwqwa2px7VqbrDCTDKoyNq2MgTdWzuOqoYlM1ZX4OgP0fhN3dGjVPT5tIaBUUExAkhjWrYhg66o4ghXWwPCCkCZj66o4NnZGK97tMJnM+78mi8BVQ/K6moymO54A7NsnJAj8ltPXrZeZjA6zwr3q0aBS3L9LSUBJCoaFsSq3BVb7ECakUiurTD7HZvJVnSMQDSq4bE0CGzujJRUx8wpNlrBxZRSXrUmUt+bqIqZlY3jSe1t5a4FB/H53d7fj2Z7jT0+jq/9+MGxx+rr1IoSoaj4pEVGxuTOKJt6+W5aR6Rzyy5zGuJSVAUoAiDuqGX3KGxZGp7M4NV7dWhiG4hD6FesSWL8igqDq3UQgpEpY1xHFFesSJRf2WcrgeBqm7b/tpYvYPCKv+6jTF3X06SmEYAzst528phvOJqs7jCMWVrFlVQKSg3XU/UoIgcHxTMX7dzsDDPQ2k3rjrPIEQAA4NZ6GEAIzGR3js9XP5TMwtMUCuHxtC7auiiMRVr2xBIsxJCIqtq2K47K1LWiPao6MkI7N5Moq3uYHAuIPHxHC0Tbb0SGFPQeOv5cBVzp5TTcUDAuzWb14E1UoEpCxbVUC/cOzjpe/9ZtMwcBEMo8VsfL3VGsc6ApwnPFhoRniXWuCDEqFDdlEMnfBCaRDkxmEAxLCmjPbCqJBBdGgAssWmM0UMJ3WkcwaEHUqk8NYcS9/IqKhNaxBdnjXQiZvNs3Q/0Wu2Hrw+D0AnnLqgo4mABz4uF8WY47P5KpKAAAgqErYujqO/pFZ6AY1UEsZnsogHlLLKv5xzoYwwxl/b48mHrMhVNlQu25eOm8thMDJsTS2r447WvVP4gyt0QBaowFYtkAyqyOTN5DJm8joVtlbnhfFGMKqhHBARjigIBZSa1bC2LBsnBhL1i2Z8RxbPAwHEwDHfkt7egZbAGMEHjvqtxrbVicQKWOLzmJMy8aJsVTJBw41q2hIwZaueNkfym+dMrD7FL23pH4eXq/g3rXl9diFAPpGZpFe5DkQnlsVX83CwFLZtkBON5E3iieh6oaFgmHDsm3YQsCyxfky1JwVkwnOOSTGoCkcqiJBUyQEFI6gptRlzZNlC/QNzyLr0RLedZLXTanrE7s2zjhxMcdGAAQzf4kJ/zT+ADA8mca21YmqryNLHFtXxTE2k8PwZOXz3X6XyhoYn86VfcbClggtBFxOSAZubJFxTYJjQ4ijM8AQmVs8kbYExvICJzI2Xpmx8dK0iRwVtlzS5go+c2Mz2UUbfwDIFEwMjCWxZWWs5juJOGcIBxSEnalkXHMCAidGU83e+ANAQFXMDwN4zImLOZYAMCEedOpaXpHOm0jljKq2qszXmQgiqEg4MZ6igkGLGJ7OIhJSEC5jf/PlcQ7OsOjBOc1sdZDjw2tk3LlCxmI7JuOcIa4wbItyvGslULBV7D9r4tunTQznaerqYpwBl0XLmwLIFkyMTC0/T5XKGjg5nsaGzigdBjxHADg5mkYy11yL/hYl2ENwKAFwpOv0ePeJBDx+3G+lhhw+MjYWVnHZmgRCDVzAo5aEEBgcS5XVmIclhjVBelzOp3HgUxtV/P31Abyzc/HGf7HvfUenjL+/PoBPbFCh0p7WC2wIcYTLuH1tW+DEWKrkeevpdAEnRpOwfVzerlQCAifHUpjO+LXUb0Vu2/1iX8yJCzmSAKiSeScA725ArUI2b2Aq5WzJTU2RcNnqONa0h6lewALyhoVT46myvueKmC8/fhVZFeD4i2uC+NBquarPl8SBD6+R8ZUrNbSq9EE95/J4eY/NUxNpFMo8LGwmo2NgNNnUI4W2LTAwksJ0mhr/i8iSzm934kLOTJ4ytsuR63jU8GQWttM3ImPoiAdx+doWx6YY/GQqXcBEGSefXZ2gdQAAsCnM8X+u0bA+7FyDvT3G8RfXBrAxRO8xAFxdRrI5PpuvuLBYKmugr0m3EZuWjWPDs0g22V7/UgkmHGlzHUoAcJcj1/Eo3bIxMl2bfaeaImHLqrnRABoOuMDpySzS+dIW/VyfkJq+INCqAMcfX6k5dkztfO0qw/+8UkNLk48EcAZc21LaYzOTNzA0kanq9bIFE0fPzCCTb55dLpmCiaNDTb/af0nCoTa36gRg3zMDcYjGL/6znLHZPHI1+kAyFM/BvnJdCzoTQTBa/gOguB7gxGgSprl8DygiM2yNNO80gMoZfvdytSaN/zntKsP/vEIraz2B31we4wiXkGkalo2BMub9l6KbNo4OJzEylfX9DqLx2RyOnZkte8qk6Qhc89iBI9FqL1P1rWxobDscrCfgWULg5HjaueIZC5AljtVt4WKt7IivdlRWzLBsjM7kSloQdUOJPTM/emi9gk3h2v/8WyIcH1nTvFNWN7Qsn2TaAhgYTZWUuJZMCIxMZ4sJsQ/r35uWjYGRJM5MZJq3yE95eEDI26q+SLUXaI0pvh7+ny+nmxhzoG73cjRFwsbOKLZXeVpWozt32tma9jCyheV7BLetaM4RgNVBjg+uqt+ukg+tVpp2KuDmtqU/YwLAyfEksjUasp/J6OgdnMb4bM43zeRUKo/XT880XW3/arXFg2+v9hpVJwCxkPbuZjr+dngqi0yJ89LVOlcZ7LI1CbTHAk2xY4CBoSWiYfuaOLauip/fLhkJyMtWUlwb5FgXaoI36SIfXlPdav9yBSTgvjKr4PnBxjDH2uDSj8zhyQxm0rVtyCxb4MxEprg2oIHnyXN6ca7/5Hi64iPYmxVjDPGgck+116k6AVAkttHLR1A6rVi3O+X8roAlhDQZ61ZEsGN9K1a3hSuql+91sszRmQhix4YWbOyMLngwSjSoLLso8I725qqvEJKBO1fU/2e+u0NGsHluewDAHcuMME3M5jA2U79DKbJzi+VOjacaas68YFgYPJvCkSZb3OikkCqBc7ap2utU/eRQOE+ENbmpVmwWTAunJtLY0FH1GoyyKFKxkeyIBzCT0TGVLiCV1Ru2Ah5nQCykoiWiIRFWSyp/GtEkZArmopUCb18hYc8pwzfDo8u5saW8Ij9O0STghhYZPRPNcd8zALcvkVzOZnScnqxuxX9FhMBEqoDJVAGxkIqu1pBni4zldAtjM1lMpfWarqVqBqGAApmz1mqvU/UnhUtMiwQVnE3Wfm7cS6ZSBUQ0Ge3x8urWO4Gx4jB5S0SDLYBUVsd0poDZjO75wiGcAdGgipaIinhYK//UMMYQ0iRkC+aCD7rVQY4rYhy9yeYYUrzGxfoH1yQ4eiZce/m6ujrBsTKw8Gc1lTOKlf5cvPUEgNmsjtmsjlhIRVtMQzykgrs8PWsLYDZTwFSqQHP8DooEZMgSr+64WjiQADAGKRZUwcCabvXm6YksglrxCEy3cAbEwyriYfV8MpDK6c4f+VkpxhDWJIQ1GZGQilhQqfqhxMAQUGXkdBNB9dKP8D0rZfQmm+Nhs8HF4jzNVBjonZ0LPyrTeRMDI7OeGoVLZnUkszokiSER0tAW1YqnmtYrGRACqbyJ6VQe01kdluWhN8cHGGOIhVRYQlTdflc/AsAYlzhDJLj8Ii2/ERA4PprCttVxaIr7E6LzkwGgWEozUzCRzhvI5k3kCib0Gi+2UWWOgCojHJARCSgIB2pzVChnxd0Sed1C4KI1KLe2y/jacQMp0/8PnsV6pfXQ2STnL0RlhlsWWP2fKXiv8Z/PsgQmU3lMpvLF0/80GbGQimhQQVCTHd27XTAspHIGUjkDyaz3RyIbWSyoQOIMzK5+DZ8DCUDxc5QIq02XAABzBT9Gkti+JlH+cHaNcc4QDSoXbCW0hYBu2MibFnTdQsG0UTAtWKaAZdswbQEhin/NPw+cMQbGGGTOIEkcksSgSRI0VYKmcGhy8Yzweg45csYgy+ySJEDjwN2dEr435P/56ZCL073lHIjTyN65UrrkQKRMwUT/8GzDNHS2Lc430AAgcQZNkRBQJARUCZoiQZU5OC+erClLHJyf+97iPn1bALZtQ7dsFHQLed1C3rBQMKyGeR/84FwHjzlQMc6xWzgR1nBmMgvh9pCzC/KGhYHRJLZ0xT2/VY8zhoBavOkRcjua6smcg8vikjUBH1yt4N9GTNDuIlINiQPv77pwiu/csH8jN3qWXbxnmmnxth8wMCTmEgAnPn1VDyHYcy2+InPEw823N/icdM7AwMhsUyZAbuO8uCZg/sOsXWW4vc3/XdSsi8/vTBO0HXe2S2jX3szqUzkD/Q3e+JPGlYiokKVisy0Equ7eOJAA4PwG1BWx+q+I95Jzq4FdX3jXhDgDAqp0QWGUD612dp7Ti0bz7n3WxnL+/pwzAB+aV/Z4JqOjfyRZ1xoghMy3IhY4/++WLTyQAFhvJgDRoOKJxXBuKp7jnSqpdj1xFmcMIVVGem6ec3OE48ZWf38eT2Tcm+M4nvX3/MotbdL5nQ6TyTyOj6VohI+4JqDKiMxbz2UJu+oxuKoTAAH7gv1WnYnmHgUAivtxB6in4ArGgEhQQTpXLAb08HrV8+syqvHKjHuN8CszjVN9rlycAfetKz5sR6ayGDxb24PACFlOx0VtqxCoeq9z1QmAaWF2/n+3RbWmHwUAaK7QbeeSgHWhhbdw+cVPpk2UcE6S4woWcGjavwnAzjYZG0MMJ8ZSGJnOuh0OaXKaIqE9cmHdH9sWM9Vet/rjgG1rcP5/M8awssUHy8sdkM6bOHJ6pqHqdPtFwbBw+mwafcOz+NhqGZJPa9bkLWC/C+V4f3TWRN6nH2uZMdy3luPYcBLT6YLb4RCCrtbQJYWcDNM+We11nVgDcPjiP2uNaAgsUKGtGRVMC8eGZpGmQy/qJp0vHpKSNyxk8gaSk7N41wqfZgAAvn26vtsdTSHw7TP+/Ty/u5NhdiJJB9UQTwiqEloiaFCFAAAgAElEQVQi2iV/botL295yVb8GwLJ/cvGfMQasaw9Xe2nfMCwbx4aTdT0prFlNJPPoG5q94HhR07JxLc8g6tOcdDhv4/vD9RsF+N6Q6erug1qKycDVyMIw/b3AkTSONW2RBXczGab1YrXXrn4EwLafXejPI0EFbbFLs5amJQSGJjM4OZ6mxYE1YNvFY5pPnU0veCZFAAK7wv49H2DPKQNH63AA0pGUhb2D/i0AcFe4AI1R40+8oS0WQDR0aX0dAUBi+nPVXr/qBODOq1afzhnmgkcBrmmLQPHr5GuFplJ5vEHnYDsqUzDxxpkZTC0zX/uWoIn1qj8f7rot8OUjBUwUapdcTukCX3lDh+HT1fAbVAvXhXy6sIE0HFniWNO28Eh6QTdzd1yxYaTa13CkdTZ0+42F/lziDGtoKuASBcN6c0rApw/TuhACo9NZHBuaLWmhJWPAB+MFyD7dFjitC/yv3gImdOc/UxMFgf/Rm8dkDa7tBTKA98d13xeOIo1j/YrIoufLFAy714nXcCQB0C37qcX+X0tEw4o41Qa4mJibEjhyZobqcVcgq1s4OjSL4anyzp9olwXeFvHv6MuJrI0v/CyP3lnnRjqOpCx88ZU8Tmb82fgDwNuiOlbI/v35SGPpSATPH/qzkIJp/YcTr+NIAmAb1qNLPYPXtIUQ1pr3nIClZHULR4ZmMTSZobUBJbDsNxOnTIWJ086IiXWKP6cCAGDWEPjD1wr45imjqhoB51b7/96rOqZ92vMHgHWqjZ0RSsKJN4QDMla3LbGVXggo3PwnJ17LsRGvn56YnAlqUnyx/18wLBw9MwvT9u+Dt1qKzNHVEkJbNHDxlk+C4vqJM1NZmA6s0J6xOP5uQkPB9vcb3aIy3LdWwd0dMrQS6yEVLKD7rInvnDF8u9r/nAAT+NyKPFokf/+cpDHIEsdlaxJQ5cX75tmCNf2WjW2tTryeY0+/g8fGdrdGtAeW+ppMwUTf8Cz1dJcR0mSsagshFlx8CKiZJLM6hqeyjk+VvJKT8a8zzfEeByTgxhYZVyc4Noc5OgIMkbltkWkTGM8L9KdtHE5aeGnK8m2Rn4t9JFHA1cEm+WGJp3EGbF0dX3a0fCqZf/y2y1Z+0onXdCwBeP7w0Nr21tApvkzXNZUz0D+cXHCrFrlQJCCjqzWMaLA5p09SWQPD09ma7ph4ckbFyzmfFgggS7opZOJ9cf9uDSWNgzGGzSujiIWW7pDYQuDkWG7De69fNbjkF5b6uk5c5Jyf9J89HQ0pa5b7uqlUAYPjKUoBShTSZHTEA2iNaJeUg/QbASCZ0TE6nUOmUPvFeiaAxyYDGNJpu2ozWaNY+GR7AZT6EbcxBqzviBaf78tI5YxTN21esd6p13b0qVcw7MdK+brWqIYNnVEwnzdmTskWTJwcT6P39AzGZnIXVLnzC8OyMTaTw+unpjEwmqxL4w8Ut3/dlyggzCkdbRZhLnBfq06NP3EdA8OGEht/ANAN25HFf2++voOEEPzVU1MZVZECpXx9Mqvj+GgStCSgPAwMiYiK1qiGWFBp2ERKQCCVMTCZLmAmrbs6LXTG4Hh8MgCDPou+JjPgl9vyvt4FQhoDZ8CmlbFlh/3P0Q2zMLWuLbKLMccWQzk6AsAYs9M58/FSvz4WUrFlVQIyVQssi4DAdLqAgZEkXj05hcGzaSRzeln74d0ihEAyq2NwPI1XT0yhf7R44prba0LWKDZ+MaH7fYalqTEAvxAvUONPXKdIHFtXxUtu/AFgNmt+zcnGH3B4BAAAenuFakSm0poilbxyTbdsnBhJ1W3Y1684Z4gGFMRCKqIhBQGlxH1fNZbXTaRzBmZzBlI5w9O7QHrSMp5JNcfOgGZzT8zArWF6xhB3hTQZm1bGltzqdzHdtA051RLZsYM5umq1Jv2dA2+MfL0tHny4nO8RQuDMRAZnkwseK0AqIEscEU1GOKggqEoIaDLUGo+26KaNnG4ir1vI5Ayk82bD1X54JqWiJ00zxH5yS9jAu2PU+BN3rYgHsaY9BFZm0zuZyj+2c/vKTzsdT00SgKf6hNalTk0HFKnsGsAzGR2nJtKOFHshl5I4Q0CVockcqiJBlTlkiUOWWPGfnIGx4seTz9WhtuZ67LYQsCwbpl08Yte0bOimDd2wUDDs/7+9Ow+To6rXB/6equpl9iUzyexkGQhkZBUQMIlEBFQEVCBelYuKkPt7FBXvdecCw5IEBFHBBUgCyCYGV3AB0QvEIIsQ2YaEMJM9kxAmzN5bdZ3z+yMEkjAz6emp7lPV9X6ehz8ISZ0v6ek6b52q7ykk7PTbv9fPFIA/9YfwTCyY7ZeF5tgSGx/j5E8ahUwDzbWlqBxje9/RJGwnFh6qrnL76h/IUQAAgBVrXv9/teWRn2fzZ3dv99rD1QDSRCngD/0RrIp74zYKZeeoYgdnViT5kh/Spqo0gubaEljG+FdfFYCe/sSCuYfULXG/shwGAAB4uuuNteVFoQOz/fMD8RS29gwjnuJOXZR/CsDl28bYk5s874q6GB/sJC2KIhaaJk1sI7fBuL3m2Bm1h7hY1l5yeqPTSYsz0o58xRrtnYb7UV4URllzGL2DCWzrjWf0ylcit3De8D9O/pRvkZCJhupiVJZGJnQOcaSSfcnEGa4VNoKcPhF2wsyaNQPD6YUTOYYAUF0WxayWSrTUlqIozCVZIiLylqKwiQMml2JWcyWqJjj5A0DvQHzxKbOaX3OluFHkJR8//dqOVeUl4SPdOt5gzMaOgTgGYin4oPWdfOwy3gLwtSvrY7pLoAImBFBRHEZtRZGr72zpH049e9yBk49x7YCjyEuv046S9OxwytgeDVtlbhyvrDiEsuIQHKnQP5xE71AKAzFb+2YyRERU2IQASiIWKksjqC6JwBpHP38m4qn0cDyFea4edBR5CQCnNzTE/v7Kpo9NtsoetQzh2t+WaQhUl0VRXRaFI3ftMDecSGMoYSOWcsDlASIimhAhUBI2URK1UPLWRmtZPta2X2lHyv5Y+kPz2uqGcjLAPvK228lJs1pW/OPV179QXRq5wxjvLggZMA2BqtIIqt56qYKUCrFUGklbImk7b/eqO1Lu6meXClLBF9vnEhGR+4QQMMSu+cMwDJhCIBLatUdKJGQiGjJQFAkhR/P9XqSEenMgcd68toancj/aLnnd7mzOzCl3/mP1ttrq8uj1Ro4fzzUMgdJoCKUZvZaIaBTbeA/Zz46aUaO7BKL9Ukph52Dykg+0NdyTz3Hz/haeOYfU/6B3IPkTXncTEVHQKQA7B5M/nntI3eJ8j63lNXyzD6n7Ss9A/DrJ5XciIgoopRR6+hM3zTm47mId42t7D+/cg+u/9eZA4huSKYCIiAJGKqiegeQlcw+p+6quGrQFAGDX7YA3h1OfSzs+e10cERFRlhxHyh19sfPmHlK3SGcdWgMAAMyZOeWunsHU+2PJ9KDuWojc9pmWEELcj3bcTAM4o4FvY6TCE0+lh18fHJo3r63hbt21aA8AADBvVt1TAxic3DuUeJz3A6iQfKYlhJ8cFcGcWjMvrUR+Zwhgbo2Fnx8VxYLpDABUWPqHky/0D8u6k2a1rNBdC5DnNsCxzJs2LQHgxBUd3YuqyqPfyfYFQkRe01hk4NszI9jUrHDvphSe6HG4Z+UIjqg0cf60EKaXeOK6hMg1jlSydyC+aM6shkt117InzwSA3ea2NXzv4Re2L6koFr8rL4kczhRAhaKlWOA7B0ewfljit1vSWLEzDSfgT7+Yxq4r/k82WZhWzImfCs9gLLUu7RinzZnVsEZ3LfvyXAAAgFMPr1sP4IhHO7rPrSgJ31wUtkp010TklmklBv5nZhifS4bwwDYbj2x3MJgO1ppAmSVwSp2J0xtCqAkz5lPhSdhOfGAo/fUPtE25RXcto/H8N+/R9euj4WTRz0qKQudGQiZvClJefWzlxHYC/OPs/b9N0FYKT++UeGh7Gi/0FfbtgdZSAx+uszBvsoVIBhf8+fj7J3JTKi1Tg/HUXVXpKV9qaxMp3fWMxZMrAHt669mA8x9VaoG1etvlpSWR/46GTH6rqWCEhMDsGhOza0xsiyus6Elj5RsO1scK4/7A9BIDc2pNzKmxUBf1/DUHUVZStpMYSth3psLxr82bOS2hu55M+O7bqJQyVqzZfmlxxDq/OGK15PqdAhRsOq9AN8clnuxx8Fyvg9WDEtInSwOGAA4pN3B0lYnjJ5loKsr+3j5XAMjLpFIYTqQ3pWy59P0zJy8UQvgqtXt+BWBfb/0FXwHgisdf2tosLOOq0mj4zKKwUQmGASogzUUGmpsNzG8OYdhR+HevxEv9DjoGHGyKKc8EAkMABxQZOKTCwOEVJo6oNFHiuzMLUYaUQizl9CWS6d+lbefyDxzauFl3Sdny9df0rb/4zwPAwy90To6ESj4fDZufCFvGYdGwVcw4QIWixHznNgEADKeB1YMOuoYkNsQkNgwrbI3nfpXAELvaGqcWG5hWIjC91MAhZZzwqbCl0tJOpJxO23Ye6o/LH592VMNG3TW5oWC+tqce3roDwPff+gcrXtlQL8yiDwngfYbAYZZpTDUNUSkMhExhmKYByxBCCK4akA+VWMDRVSaOrjLf/jVbKWyPK7yeVNiRUHg9KfGbLekJjXNWk4XJEQNTogJTogJ1UcGdDalgKKUglVKORNpR0lEStlSq107LjVLhRTvtPGWK1N/nzpq6TXetucBvMtEYZizvntA1ddf8Bq3fMdavt34iL+POG0RERAHEAEBERBRADABEREQBxABAREQUQAwAREREAcQAQEREFEAMAERERAHEAEBERBRADABEREQBxABAREQUQAwAREREAcQAQEREFEAMAERERAHEAEBERBRADABEREQBxABAREQUQAwAREREAcQAQEREFEAMAERERAHEAEBERBRADABEREQBxABAREQUQAwAREREAcQAQEREFEAMAERERAHEAEBERBRADABEREQBxABAREQUQAwAREREAcQAQEREFEAMAERERAHEAEBERBRADABEREQBxABAREQUQAwAREREAcQAQEREFEAMAERERAHEAEBERBRADABEREQBxABAREQUQAwAREREAcQAQEREFEAMAERERAHEAEBERBRADABEREQBxABAREQUQAwAREREAcQAQEREFEAMAERERAHEAEBERBRADABEREQBxABAREQUQAwAREREAcQAQEREFEAMAERERAHEAEBERBRADABEREQBxABAREQUQAwAREREAcQAQEREFEAMAERERAHEAEBERBRADABEREQBxABAREQUQAwAREREAcQAQEREFEAMAERERAHEAEBERBRADABEREQBxABAREQUQAwAREREAcQAQEREFEAMAERERAHEAEBERBRADABEREQBxABAREQUQAwAREREAcQAQEREFEAMAERERAHEAEBERBRADABEREQBxABAREQUQAwAREREAcQAQEREFEAMAERERAHEAEBERBRADABEREQBxABAREQUQAwAREREAcQAQEREFEAMAERERAHEAEA0irblO0p110ATw8+QaHQMAEQjOOzO7SUJpB/UXQdNTALph2f+4Y0y3XUQeREDANE+Drtze8lwVP4RwIm6a6EJOyGdtB9iCCB6NwYAoj1w8i9IDAFEI7B0F5Cp2NVNjQiJ74iwPFmE0SQiqkiYMCCU7tL0UgLKgVRJEVc2NsuE+Qgcsbjkko3bdJfmNzmY/AdcOk6QDQFw4z7+7hDw4VfPrB104XiUQ7GrmxqFYXxQGup4YeFQw1IHiJCshCFCwoSpDGkJAwJCQDpQSIqUjIlhp9/aqXYaLzm26DCUWqMU1jpJY+2kezr5XRyB0F3A/iQWN5+CYnmTKJMHCa5XZERJQPYba52YeVHpJZse0V2PH7Qt31GaQPovAGa7eNiOrvkN73HxeOM2Y3n3hBJy1/wGreeIGcu7OwDMcvGQK6OwPtIxf/KQi8ekCRr6/tQ6E/YFMMUZRrFsE0WqONtjKQk4b1iwN4egEm//+K4D8Dco8TflpB+pumNDnyuF+5xnA0D/DU3VYYiHzSrn6MBf5WdLCTi95jPRAfNU0c4f+NHkatlfCfxw3TkN/+3mMcfL7wGg9VfdP1QCF7t82H9akRBXAjSLXd3QrELWVVaJc6YoUZWun+eVgN1twd4YAuRe/yUNYKVS6i6ZMH4d5NUBTwaAoYUtJ4eqnQdEkYzqrqUQyGFjyOjDnPAlW5/XXYvX5OjKHwAcAXFY5/z6V1w+7rj4PgAs3zZLQb0IwHT50FwJ0EC1w0iEm7+HYnmhUSZbhNuf6gjkoInk6jBUasQf5TiA3wuFO8uXdT0sgEBdbXouAAxdPfXTobrU3cJSXPB3kUrBSfWE/qPse5t+rbsWr8jh5A8ocVPXp+q/6vpxx8nvAQAAZizfdhOgLsrBoRkC8kTdglB8oGWhWepcJIpkUd7HTwokX4lCDo/54/yyAq6rbGq+V7Q/ls5XbTp5apIdWthyMif/3BBhmOEa+75ke9NhumvxgpxO/sDjUfHmN3Jw3ECK4s3/AfB4Dg49O4H0X7hZUO6odoSHv9+8LKUahq1a+5s6Jn8AEBGFyKwERHjMPPweAfyif8vmjt4LZ3xeneP6qpPneGaiVe1TK0PV6T9w8s8dEYapJqsn+29oqtZdi057bPKTi8n/CSsSOr1jflsqB8cOpI75bamShHEagMdycPjZ3CwoN4YWtpybrG18MzQ5fb6IqpDuenaFgCQyeJj8IKFwe3/F9GcHzm89Pg+laeOZyTZR7jwiipSWdBgkRrEsDknxO9116JLjPv8nrEjoI3y4zH0vnlc3XJIwPobchADuE+CixFXNMxI/bnop3GjfZZTIEt317MkolbCa7Ax/tzhCGuqJ3gtn3Dmw4KCanBamiScCQGJx8ylmlXO07jqCwqpy5gTxVgAnf39jCPC++MKmdlHvrDUqHK3tr2OxGtP7uxWwJyEU/lNK55X+C6Z/NJd16eCJAIBieRNb/fLIVEKWi3t1l5FPnPwLA0OAN6kbmoriNzQ9YTY4l3v9Nq4wFULNma4CvK1WQfyx94IZP1YL3qv9doZbtH9QsaubGkWZPEh3HUFjVKTbhhceUK+7jnzg5F9YGAK8pf/Kqe9LReR2s9o5wXt9ZSMzJzsQ5rgvOoUAvtov+1f2XTBzWi7qyjftAQAh8R3u8Jd/wgSEqb6tu45c4+RfmBgCvGFwccs5kfrUP0WJKtddy3gIU8Golvv/jSNSxwLpf/Z+sfVIV4vSQPvUK8LyZN01BJURcU7RXUMucfIvbAwBesUWN389PDn9KyPk7SX/0ZgVzkT+eJ0QakXfBdN8PX9p/+BEGE26awisMJp1l5ArnPyDgSFAj6HFLYvMKekbhKl8suj/bkbJhJ87KwWMB/subJ3vRj06eCAAsPVPFxHO/oUbXsbJP1gYAvIrdk3TdeE6+7t+v3UrotneAthLBErd23vB9E+6cbB80/4RCtOfy0cFweNP62aDk38wMQTkR2xRy8XmZOcbfnnYbyzCcq3zzBQQv/Tj7QD9E4D+CgKrAL7De+HkH2wMAbk1uKjlbHOKfYPfr/xzJAxh/NpvDwbyowwwlS6cCMDJnwCGgFyJXTv1uHBt+lfCLJzrBtfPfwrlQqg/77yg1TfPtTEABJhKFMbHz8mf9sQQ4C51+9SoWZp6WPj0af/R5Oj8V2dC3e+XzYIK6gOl8ZFD/g/znPxpJAwB7om/6azwW59/JnJ4/juuX/ZfmauDu4kBIMCcfn9//Jz8aSwMARMXX9x0uVWdPkZ3HbmQ2/Of+nbvha1n5HAAV/h7BqCsKUdA9vr3ddec/CkTDAHZS/zv9AONWnlZ4dz1f0cezn9CKLWk/4vefvU6A0BAOT0mlOPPbzYnfxoPhoDsqJrkA15/sU+28nT+m6xEZGGuB5mIgvxwaT8kYG+2dFeRFU7+lA2GgPGJL2r4glkpD9ZdR07k9/y3oH/Bge/L12DjxQAQQHa35csOAE7+NBEMAZlR7QiLSvxUdx25kufzn6Gk/Kk6B5683+q/WYAmRA4YsDeGdZcxbpz8yQ0MAfsXK27+uVFcmFu0y0Et57/39lXM+Gy+B80EA0CAqJRAck0EcG0HzPzg5E9uYggYnWpH2KpwztVdRy6olEBytZ7zn4D4rmr33nzruYIoN1RSIPlyBCrlrwf/OPlTLjAEjCwebbleRJT/lgj3Q//5Tx3cv7n1LE2Dj4oBIADkgIHEC1HImL8+bk7+lEsMAXtT7TDMCudC3XW4zTPnPwOXKI+9gsVfMwKNjwTszSEkXoryyn9vnPwJAEPAnhLh5u+JIhnVXYdrvHb+U+rw/vNbPfXGQAaAAqQcgfR2C/FVUdgbQ7znvzdO/rQXhoC3FMuCuPr38vlPGThPdw17YgDwOwkoW0AOmkhvt5BcE0bimShSnWG2+r0bJ38aUdBDQKy9sckoky266xg3n53/BNQn31wwvUJ3Hbv5czcYF33+fd1ax//ZD1q1ju8lnPxJpxfPqxs+7M7tH8vRz+DuEPBhL/4MqmJzoTCl7jJGpRyBN9LNeLXsOKyuno0NVUegp6QRjgihODGASf2b0dizBjM3PolDBx5FxBnWXfJoioTEJwHcrrsQgAGAPIKTP3lBUEOAVex48sU1jm3hqaIzce+RV2A4PPK2+oPF1RgsrsaG+sPxxKGfQigdx7GrH8Qpz9yC2r6Nea54/wTEufBIAPDeGgkFDid/8pKg3Q6IXd3UKEpUpe469qSkQIeai4uP+TeWvPemUSf/kdhWEZ44dD6u/MLD+P3cb8I2PdfVOGfHl9pKdRcBMACQZpz8yYuCFAJMCwsgvPOkXDoZwk9aluC64+7DYGRS1sdxDAt/Pea/cOP8uzFQXONihRMWitiJObqLABgASCNO/uRlQQkBTlh9THcNuyWTRWg/4q94rvGjrh2zq+EoXHvu77Ct5iDXjjlRCvig7hoABgDShJM/+UEQQoBZpA7ROf5ujm3imvf8BlvKZ7p+7N6yetx41h3oL53s+rGzojBPdwkAAwBpwMmf/KSQQ0Ds6qZGUaT/xT9KAnc0XYf11UfkbIz+0slYevpPvPJMwJFeeA6AAYDyipM/+VGhhgBhGJ5Yin5FzMU/pv5HzsfpajgKfz7hqzkfJwNGOJ3Ufk+CbYABN2N5d16f/hlGznqNV0ZhfaTjzNqhXA1AwfbieXXDbct3nJ5A+i8AZrt8+BPSSXtgxvL87kvyq53X4jNYntcx9+XYFm4+5qd5G+/v7/0iTnhpOWr7NuVtzJEIKWcCWKWzBq4AUCHYNfnPn8zJn3KqY/7koSisjwBYqbsWN8xw1ukuAU8VnTmhp/3HK22G8Ndj/ytv441GwnD/YYdxYgAgv+PkT3lVSCGgGVu1jq8cA/ceekXex/3XwWcgGSrO+7h7EkoxABBNACd/0qJQQkCZofdxmTfSTePa5MctqVARXp5+Yt7H3ZMSaNZaABgAyL84+ZNWhRACQkZa6/ivlp2gb+wWfWMDgAC07wHBAEB+9IQVCX2Ukz/p1jF/8lBJwvgwctMdkHOW5gCwulrfJLy19mBtY++iGACIxmllFJbnXqZCwfXieXXDUVinw4crAYah9w2A6yYdpW3sngrdK/CCAYBoHHjlT57k15UA3QGgL1qnbexERPv8q70A7gNAfsFNfiagzBnCF3t/gRPlP1AvXkexFYMVdgCh4KQNJOwotjoNWGkdj9sr/hM9Zv7asgpFjl8lXHgUkBYh3VUEGgMA+QE3+cnS4bGXcNXQVWiNroMoHnnPJ9OSKLFiOAidOAid+EL8bnTGZuCq0m+hK8/1+l2ONwtynXQMbasAKi0QTQ1hqKhKy/jRpPZrCe0F8BYAeR2X/bOg2puq49c3PfpL5ws4sLQLwsp8w0dhKBxY2ok75QLEbmh6SrVP9dS74r3OT7cDbFvfFbhKGJjUv1nb+DUax95FMQAQjYEP/GUhfm3jvNQUtdWscU4U5gR2ejYAq9p5X2qKvW3gynpPvL/cL/zyYOBwvETb2HJIoOmN1drGb9qhb+xdhPbzGgMAeRX7/LMQu7r5U0a1+psoklG3jimKZDRSLx4bXNxyjlvHDAI/7BPQE8v/Jjy7Of0GZm58Utv4Mzf/U9vYACAUBrQWAAYA8qbHOPmP3+BVjR80pzj3ipBy/XstQsoI16TvG1x4gCfeY+4Xe4SAx3XXMpLXUq1Qjsj7uMoRkL0mDl33f4jYsbyPH7bjaFun9yNRArrvQTAAkKc4UOKmKHpP5eQ/Puqa6RXhWvwpF5P/biKkjHC1/We1uEXPU1s+tSsE9J4CiJ8AcHTXs6fOoulwesy8j+v0mFCOQMSO4eg1f8z7+Meu/oOW4LEnBbFWawFgACDNFDAM4GWh8CMBcVjXp+q/2jG/LaW7Lr+Jh+xHRNS9Zf/RiCIVjYflQ7kep9B0zG9Ldc2v/4owxOFC4UcAXn7rZ1+rTSXNsDeHAJXHVQAJ2JvfaUA75ZlbYMr87UgYclI49Zmb8zbeaAzIV3XXwDbAgOua35D/9T9yVeyalvlWdfqYfI1nVctjhy9rOb3kyk0P5mvMQtF5dn0HgK/rrmO3q86ffrQyxL/sbguhRjsvY9rdFlTinWvP2r6NOOm5ZfjrMfl5Re9Jzy7DpP4teRlrLMowtAcArgAQ+Zi6BSGz3FkGMYGn/cdLKIhSuUydg/yvHZOrbIReBSDtjSHIwdx/nHLAgL0x/K5fP+2JH2NG96qcjz9j67P46JM35nycDMiUFeEtACLKXryv+T5RLEvzPa5Z7dQO17R+Jd/jkrtqb3t1EFAvQgLJ1WGoZO4WBFVKILkmAoyQVUNOChf+4UuoGuzO2fhVg9248IGLYDn5WenYj39P/lmH9uecGACIfCq1sPEIs9b5hI6xhQWgLL1o5yPe0NAAABAKSURBVAWtTTrGJ/cIhf8D3pqgX4nmJASopEDy5QhUavRjl8d6cNFvL8hJCKga7MZFv/kiymM9rh87KwKP6i4BYAAg8i2nTPxJGPl8emtvRpUsMnc90EY+Jox3JiM5LJB4Pgqn373bAXLAQOKFKGRs/9NNfc9afPeuM3HglmdcG39G9yp8++5Pon7na64dc6KExN911wAwABD5Uvza5kvNcqdBZw2iyAGEOqv3wtYzdNZBE2PHjBUA3n4MX9m7rtbtTaGJ7REgAXtzCImXomNe+e+rNN6Li379eZz69M0TWq63HBsffvrn+Nryz3rnyn8XOxmJemJzKAYAIp8ZaG+oMSqcy3TXYUR23cwVSt2040tteX8Ogdwx6Z7OAey7W6EC7E0hJJ6LIr3NGlcQUI5AeruF+Koo7I2hEe/570/ISeHMldfjsjtOwewX70PYjmf8ZyN2DLNfvA+X334yzlj5A6/c89/TCi/c/wfYBkjkO1aZ8ZCIOtq/uyLy9pm9JZxKtAP4hr5qaCKUUncJIU5816+nBFJdYYgNCka1hFnuwChVEFGJ3e+ZUI6AShiQwwJOnwHZa7q2u2BN32Z85pH/xVmPLcLL00/E2ubjsWXKLPSUNyEeKQcAFCUHUDOwBU2vd2Dm5ifxnnWPjSsw5JsSuFt3Dbtp7wFP3VGfx/6ld4utLNY5vHaVS7u0/wxQ5gYXtZwdqU/fn9e2v9FIIPbPt78/DgxxbOWtnbnv5SLX7fxsa7lZpLYBCPYJMfditrTqdnVf6MdbAEQ+odphhSqc2z0x+WPX+9z3YEKqW7g3gD9NuqdzAAoP6K6j0CmI33ll8gcYAIh8I17U/CujJP89/6MZoV3s6IHKGV/SUQtNnDDEHbprKHQCzi9017AnBgAiH9DZ8z8aOfTui32lsJB7A/hT+ZLOvwJ4UXcdBUuIFyqWrv+b7jL2xABA5AO6e/5H4vSPWE4Z9wbwJwEoIbBYdx0FS+FqkVVPRO4wABB53PA1LVfo7vnf1+73uY+IewP4Vnlf1/0AtL+kpgCtrmjq/K3uIvbFAEDkYQPtDTVWZfp7uuvYl7Nj7FYv7g3gT+J+OErgGt11FBoBsUi0Q+quY18MAEQetqvnX2nv+d+LAuyt+y1p994A5DOVjV13AsK9vXjpufL+zl/qLmIkDABEHhW7pmW+VS3fq7uOfdlbQ3u9z30MF/ctaD0q1/WQu0Q7JKT8MuC9K1YfksIwvizuh6O7kJEwABB5kGqHZZQ5y7zS87+bSgqkN2e8IMG9AXyq8rZ1zwJYqrsO31Pq5opbX3tadxmjYQAg8iCv9fzvluoKj3ebV+4N4FNCJb8L4A3ddfjYDoTT/6u7iLEwABB5jBd7/gHA2WnCeXP8F/PcG8CfKpZteVMIfA68FZANJZW4oPLnm3p1FzIWBgAij/Fiz79yBFLrwtn+ce4N4FMVS7r+AoHrddfhQ4url3U+qLuI/WEAIPKQ+LXNl3qt5x8A7A2hkbb+zRz3BvCtisbmS4SCJ95f7xNPVRiV7bqLyAQDAJFHDLQ31BgVzmW669iXHDSQ3j7xTkTuDeBPov2xdFriMwC2667F6wTQnbbMs8Wtz9m6a8kEAwCRR3i15z/VGXZrA1PuDeBTk27v2iwNdQoAT9/T1kpgQArjtJqb127VXUqm9AcAnY+XeKvDSoek7gJol8FFLWd7sue/OwQ57OppgnsD+FT1reteUkJ8AkBCdy0elALUWVVLXntedyHjoT0AKEdoiwD7vM88iPp1F0C7ev5DFc7tnuz53+T6ggT3BvCxqiWdj0OocwFvbmyjiaOgPl25ZJ2n3vSXCf0BICXi2sbObDezQrZOdwFUUD3/meLeAD5WuWTdbxTEWQC0nbs9JAkhPlO1dJ3nXvSTCe0zoLKxWdfYcijgKwACL+guIegKrec/U9wbwN+qlnb+QQnxEQR7FXEIkKdXLulcrruQbGkPADJhPqJrbKdf+/++XlL8XXcJQVeAPf+Z4t4APle1pPNxqTAbgG8eenPRdiWMOZVL12ubv9ygfQZUUXOh0nA3acz3mQeCGk5FIn/RXUWQFWzPf6a4N4DvVS/retmBOC5Y+wSIZ5TlHO+3B/5Goj0AlF68/nU5YKzN97hOz9jvMy94Stw7+WcdQ7rLCKpC7/nPFPcG8L9JSzu3lDc3z1MQV6Cwtw1WCrixwqiYXXXzhg26i3GD9gAAAE7MvAj5XAWVgJ35G80KUQrKvEZ3EUEWgJ7/THFvgAIg2h9LVy3tbBdQpwPYobueHNghFD5atbTra37Z5CcTnggApZdsesTpNZ/J13h2txXwDgBxQ+Vta9kBoEmAev4zxb0BCkTF0nV/VmlnpgJuRGG0CkolcJdhmG0Vy7oe0l2M2zyzBq7ap1Yma+3NuW6HkgMGEi9Fg7wJ0JMVRWKeuKmTmwBpoNphJWsbe73W9qeSAolVUZ23xZ6t6O86TtxfEJMGAehb0HoUpPopgON015KlVQLiyxVLO5/SXUiueOYyWLRv6BNviPerlMjZCUClBJJrIoGd/N/ap/ocTv76BLDnP1PcG6DAVN7auaqiv2u2Aj4HiDW66xmH1UKJ8yqauo4p5Mkf8NAKwG6Di1rODtfY94mwuzuFqaRAsiMCGfNM5sm3zdJQp1Xfuu4l3YUEVWph4xGqXq3yWtufs9NEcnVEdxkAMOhAzJq0tHOL7kLIXaodRu/m1tMMoS4DcLTuekbxkgKur+zvuicoK1GeOhHtlmyferCqsZ8ySmWFG8eTAwaSayJQKU/+7+bDk1ba+WTpHRv4Ni+N4jc2bfVa259y3lr6z0fbXyaU+E3lss6zdZdBuaEA0X9+68kw8DlAfRxAseaSYgridwLOLyqWrv+bCNj6sEe+9e+m2lvL46XJB82q9FyR7VqABOytIdibQgH7WN+WglA/qIgaV3DZX6/4tc2XmlPSV+quY1+prjDS2zzWjCDEmVVLOh/QXQfl1hvnzyyzDPtsAXEugLkA8vWDaANYoRTuSivrt7W3vTqYp3E9x7MBYLdke9Nhslzca1Sk2zINAsoRcN4wYW8J6tP+ahgQ90Ca1/Jpf/0G22dMDtfFt3qt7S+RKMWGrW1o2ea5u0KbUuFoG/epCI7uBQ3FxSp6AqTxISXUbAG8D+4FAqkE1giFlVDib9KUf62+dV2QtzB+m+cDwG5DP5o2xUg43zXC8mQRUS0Iq2JhKgPYNeGrhAE5LOD0GZC9gdrkJwWgD0qthxD/hhCPpkKRP/Pk6R2xHzQ9a01yvNX2p4CfN/4MW6IH4zt3fxymTOuuaF8/qFza9Q3dRZAeO77UVhpOJw8SUs6UMGYKpWYqgWYhRCmUKgNEJaDeephWDAGqD0IMCqkGFbBFCfGqIdQaJcTalBVZy/PhyAIzSxLpMLio5exIffp+r73qtyt9JK56/58AAGc9tggnPXeb5orexYEhjq28tXOV7kKIClUQ18eJ8kK1wwpVOLd7bfJ3UhZ+fPQdb//7A7O/jp0VnnsxnwmpblHnuNsNRETvYAAgyhGv9vw/OOkrGIjUvv3vtlWE+066QmNFo+LeAEQ5xABAlAOphY1HmLXOJ3TXsa+dyQb8ftY33/XrHdM+gOcPPFVDRWNTCgt3XtDqueUJokLAAECUA06Z+JPXNvxRjsCNh45+r/9XJ12OeKQsjxVlpMxU+JHuIogKEQMAkcvi1zZf6rUNfwDgX6HTsbHqsFH/e3/JZPzxhIvzWFGGhDqr98LWM3SXQVRoPHWFQuR3A+0NNZE6bPNez38JLprdgbQZHvP3CSXxjV/Ox7Rtz+epsoxxbwAil3EFgMhFVpnxkNcmfyjg9unX7XfyBwAlDNx78tVwDG/9LwBoCacS7bqLICokDABELhlc1HK2VS29teEPgC7nSDzd/PGMf//W2oPx2JHn5bCirF3ct6D1KN1FEBUKBgAiF/il5z9T3BuAqPAxABC5wC89/5ni3gBEhY8BgGiC/NbznynuDUBU2BgAiCbIjz3/meLeAESFiwGAaAL82vOfKe4NQFS4PHXVQuQnfu/5zxT3BiAqTFwBIMqS33v+Mz4k9wYgKkhcASDKwuCilrMj9en7vdb2Z28NwV4f0l1GPjkwxLGVt3au0l0Ikd9wBYBonLza86+SAulNnrtKzzXuDUCUJQYAonHyas9/qisM5QRyUY97AxBlIZBnC6JspRY2HqHq1Sqvtf05O00kV0d0l6HToAMxa9LSzi26CyHyC64AEI2DV3v+U+vce+jPp7g3ANE4MQAQZcirPf/2hhBU0lOZRA/uDUA0LjxrEGXAqz3/ctBA4sUo4K3nEXXi3gBEGeIKAFEGrHLzL16b/KEEUl1hTv57awnbict1F0HkB1wBINqP+PebPmDUOI8Jj8XlAPb8ZyoFaR5SedvadboLIfIyj53SiLxHhNUtXpv8A9rzn6kwTOdbuosg8jqPndaIvGXo+1PrRJmcqbuOfQW45z9Tn+5e0FCsuwgiL2MAIBqDkPJ7wmN7zDk7TThveqwor1EoL5bFH9VdBpGXMQAQjcGIOB/SXcOe2POfOQU1R3cNRF7GAEA0BhHBAbpr2JO9kT3/mRLAsbprIPIyBgCiMYiwjOquYTc5aCC9jQ/+jUOT7gKIvIwBgGgMwvTI8/8KSHWy53+canUXQORl3ji5EdGY7O4Q5DC/ruNk6y6AyMt4RiEag0rB0V4De/6zxe2AicbAAEA0BmUb2icR9vxnRwCv6a6ByMsYAIjGoFJiq87x2fOfPQXxsu4aiLyMAYBoDDKG3+samz3/E6OAh3XXQORlDABEY0j1mNcpR8+z9/YG9vxnTw3Hjdgjuqsg8jIGAKIxVP1oQ5/sN1fne1w5ZCC9nQ/+ZUtB3NZwa3dMdx1EXsYAQLQfqQHriyqfvQAKSL3Gnv8JsAWsH+ougsjrGACI9qOifcNT8k3z8XyNx57/iVFCLK5c+up63XUQeR3PMkQZiFrWx1XcSOR6HDlkwN4YyvUwBUw9XxnFIt1VEPkBAwBRBsTXN/QlB80PKVvIXI2hUgLJNWEgZyMUNgVskwbOFDd1JnXXQuQHDABEGSr/1qYnnB3Wp3MRApQtkOyIQCX4lcyGALqVoU6tvnXdJt21EPkFe4yIxmnw6vq54UnGw6LInTcFymEDyVcibPnLmnpeGjiTkz/R+PCMQ5QF1d5aHi9LPGxWOcdl/b5ACdhbQ7A3h7jsn50UgOsr+qNXiPs7UrqLIfIbBgCiCYgtOuB4oyi9zKhQB8NQGX2flCPg7LBgbzW55J+dQQD3SEMt5lU/UfYYAIhcMLCocZJhmJeaYflBI6qmIaSKYCpTAFBpAZUQkMMGnD4TsteE4hV/puIC6FXAJiXwrJBixWB54o/NP9wS110YERERERERERERERERERERERERERERERERERERERERERERERERERERERERERERERERERERERERERERERERERERERWe/w81Jhm/h9Q+MwAAAABJRU5ErkJggg==;fontStyle=1;fontSize=20;" vertex="1" parent="1">
                    <mxGeometry x="270" y="285" width="170" height="170" as="geometry"/>
                </mxCell>
                <mxCell id="8" value="Pemantauan&#10;dan Kendali" style="shape=image;verticalLabelPosition=bottom;labelBackgroundColor=none;verticalAlign=top;aspect=fixed;imageAspect=0;image=data:image/png,iVBORw0KGgoAAAANSUhEUgAAAQAAAAEACAYAAABccqhmAAAABHNCSVQICAgIfAhkiAAAAAlwSFlzAAAHYgAAB2IBOHqZ2wAAABl0RVh0U29mdHdhcmUAd3d3Lmlua3NjYXBlLm9yZ5vuPBoAACAASURBVHic7Z15lFTF9ce/9/XePfvKDCCrLCICMiAIIuO+QFxB4xJww2D0pybRKBqdn4loYmLcjbjHJfkJoriAiUYWATUSFVFBdmQZmH2f3t6r3x9NMz09vb3Xb+nuqc85nMOZV6+qZrrr1r237r0FcDgcDofD4XA4HA6Hw+FwOBwOh8PhcDgcDofD4XA4HA6Hw+FwOBwOh8NJJ8joCaQDU+ezfAmYBWDe+qepIlbbE+czptO0eiXrn6aY39nJ89l3BPxN9OGlz5+jQ3rNK10xGz2BVGXWLGbaW4RKEzBPAs4DYDV6Tpz4EHAMgAdNFtw/ZT5bKQGLWuqw7LvF5DV6bqkIFwBhTPkFG8UkXLmfMFdgKOXbedpiYsBpBJyWW4TGE+ezxQLhlbVP0VqjJ5ZKcAGA7io+kzAeAMBXfiaRD2CexDBv8nz2PTcRuui1AoCr+L0TbiJ0p9cJAK7icw7DTQT0EgHAVXxOHHqtiZCxAoCr+Bwl9DYTIeMEQG9Q8QUwDPHswOiO7zCq83uU+mtQIDYi39+EdsEFAKgxF+NHW3/ssg3EBuc47LANNnjWaUevMBEyIhAoVMUHDqv4GhEvEEXLQKBiXz3ObP0QZzZ/hGJ/rax3aywlWJk9DW/nzUSjKU+jGWqPkX9/AGBARpkIaSsAQlV8pqOKb8QX0CW24/LG/8PMxvdhgT+pvjyCFc/1mYW38n8Cs9eu0gyBqW3rcUPNIhSIjbLeqzcX4KmS67HONSmh9kYLgBBEAtLeREg7E6A3qPihtHYw/Ln+Poxyb1GlP5vkxfrRtfhu2N/Qf9N0FOwfpkq/N9TKX/wAUOhvwA01z2DdoMQEQAqRESZCWgiA3ujFZwBqGyU0tzMsNM3BK7gLAqSk+/2k4Fj881g/AD92jl+B1qK9OGrTdJBkSrrvXkzaniIIRk8gGrNmMdOk+ey0KfPZGxJwEMAz0Ni+TxUYAw7UBRY/AHwmDcdi57lJ9yuSCfeeWtbtZ7UDvsX2ie9BMolJ9f1U8Tw0mPJlvxc0ATKFkFOE/VPmsw8nz2ezRs1iKXsClXI+gKCKD8JcMJQaPZ9wtLZBGQKLv8PdvRsHefBP7y/R11+tuO9/HDUJN85yRnyWWzMQQ/8zEySl7J4AIKV8AHJoBJCSJkJKmAC9UcWPRm1jz8UPAJ3MhrvtN+CFtntACv44bSYXfndGNoDIO31zyW7sPWYNjvp2uuy+OXFJWRPBMAFgZKCOTwTqmroWmsNOKMoVYDVYHLZ0sCNqfyTWiKOw1HU2LmpfDgCotRRiZdZ0bHSOxo+Wo9BozoMAEbliCwZ4fsS4jo2Y1rYOxf5a/HVkBQ7lxlbzawZvRFZDOQoOqOMY5PQk1QKNdDcBjFbxfSKw95AIMcyfZhKA/qUmWOL4wrRSQUUJ2HOw57zCyUYnXmX34/28s7A6+yRIcdw4JiZiavs6LPrJVrRmtcedh8XrwDEfXwmL1yFn+rqRpiZAPAwzEXQRAHoG6sSjul5CW2fk70iWg1BWGHtBafUFrGmS0NwW/9VsB6GkQIAg85PzWTuxZ+xHaOqzM27bkl1jcNSm6THbNJZvx4/HroLPHl+oxMLidmHApkrkVQ9JqL1RAmBq23rcULsIQMDhuTbrRC2G0T3QSDOPT6p68SPZ10HcXoaSAganevExCeGXgJYEFn9+NqFPofzFDwR29qH/mYniPcfGbVs34Fv47G0x2+wZvTLpxQ8APns79oxemXQ/WjO/9lkU+BtR4G/E/NpnNRtH71ME1a3edA7UIQC5LiDXxSBJQFsn0NZB6PAEjua0oqWdxXXrZTkCfopkOeqbU+CzdqKpbEfUNpIgombgJvTdMjnp8TKFQn9DxP9riC6BRqoIgHTy4jvshPYoJkBRXtfWKghAjgvIcTFIItDqDggDLWhpj234W0xAaYE6yhoxwsCvTse3BdXw2zqitqvvvxl9t0xCNCtxwKZKVU0ATkw0O0VQLADSNd22X7GAnQdE+MJC6i1mYOSAyF92wdSlGaiN28t6zCWcwjxlan80zH4b+m6ejD1j/x21jdfRiva8GriaIvtp8w8MRf6BoepNipMQap8iyBYA6aziA0BpPkN5sYAtuxlqmw4fA1oJRXkCapuBbAdDlhMw6xQZ647zsVnMAfVfbYr2jsL+kZ/G1AJai/dGFQAcw1HFRJAtAJiEbwP/kfum8ZjNQNbhQLhxwwgAYV8NodMT+JnbA7g9hNpmwG7VRxi4vbH/kFkO0uSohhihoHoIagZuAgBYJYYKtw/T/PUYa6nGsY6d2FW6Bf+7LeY1CJzU4IiJAJkneykRCagXeVndF5vXB3RG2oFZdGGgNh5f7OdOm3YntaNqSvGn4tcwxrkDg3N2wpTb3RbxebM0G5uTGvQaAUAUcOqF0thG8TWZUGHQpP68RDH2BKwW7QRAQacNF/dZEfV5n6y9Cfd18lHv45aKu1HokOeXqussxSNfLMSavWfLei/dmGR5E9fYbwIAPO9+HJ/5LjJ4RgFSO/NDRXKcgWi/IJIEtCV/jJ008SL/TBp+QrUdfWI+twiJ+5VumXCX7MUPAEWOQ7hlwgLZ76Ub19hvRj4dRD4dxDX2m42ezhFSUgPQIlY/N7v7TtvUBkgp4McgxFZCGLQL15RYbOcGS71k0bQlnw5E/L/RpJwGEIzVb+tkkFhgkbZ3MuyrEeFTmLLusAM2S8gPGNDSnhpfbiHOJ+BPLk0/Jrm22AEtPinxk91Hvrgf9Z3yTwyCJgDHGFJOA6hrkiKqxaIUeBYvVj8SeWHn921uxD171wuTKbYZ4PMzWM3aCKvBeZtjPq9uPSrhvlb/eC5W/5h80RKjaOtkqGkKfBAleYImR6+xaC7dhd1jPg6Mv3s0SnaOhcmvfWhNymkAsWL1OzzydfbQo78gTa2psfsDgCXO4m6P8fdIlvF9Yh8Z72sbqNnYqUZtkwRRBEQx8H+92T3mY/jsbfDZ27B/xKfYdNqLqB72H4hmbbOEU04AxETBWgjf/aMe/RmE3RpbALg9IgRS3w4wkR/Tj3ovZpttDaNVHzdVCTW1tDS7okGs+/fAb3XrIghSTgA47NEXRI5L3s5NBOSEHWU3tiZw9KcjTlvkn1tNIk7ptxr/Pm0kzix+UfVxTx24DCXO2M6oz6unqz4uJzIDNp4SsUy71oIg5XwAfQsF7DoYOVZ/zFDCocaAmpYI2a4IR3/RI18NwW4lmE1du06hsxWXDXoONw77LWyCGwAwt+89WFV/CTrFbFXGdFlacf3Y+2O2OdTeF7uaRkR9flLBm7hxwE0osCqvUQgA9b5yPLH7CaxtuCCpftKd3JqBGP3RVagZ/DUODf4Kfqu72/OgIDg0+CsM+voM5B4cpMq4KacBlBUxTB0joKwwsDDMJqCskHDScQJcDqCsMPHtO1z9T5Wjv3DysxiG5v2IRyddi/+enY9fjbjtyOIHgAJrNe4eeqkqpgARw+0n3IZi58GY7d7dfkXM5zcOvDHpxQ8AhZYDuHHgjUn3kwmY/FaUbZ2I0R9dhb5bJkfVCHaN+Ui1MVNKA7DbANfhSlTBWP0ON7oV6HDYgKI8hrqm2OaAwwbYQp2oDGhOkaO/cI4uPIiXx46EhTxR20zMW475A27F07sfiVsGLBpEDP8z/reoHPBOzHZe0YZ3tsUWABztCAqCkp1jI2oExNTbt1NKAyjM7b49d3qA/XUBIRBKfhaQHScuPy8s8KetE/CnyNFfOLXeflhRc03cdueXPo6qYRfAYWqVPYbT0oaqqT/HRcNfiNv27W1z0OQpjNnmid1PoMFbFrNNIgRNAE5PwjUCa0c2LO4sDNioXv2ElNEA7LaeDrH65oDD7mA9oX8pgyU4WwJKCxg8PoI3QjKN2QxkhdW0bGpLzd0/yEv7foeTCxcj1xz70s/J+e/gheNG4tX99+CD2qshstgfoYn8OG3g27hu7AMoccZX2es7S/HiN7+K2+6ThovwSUNqxLMnQmP59iOlxwZsqlS9lsHJR72PWybcBSAQFCU3JqLdzVDTGDh+zHUJyMuiI0FiQUFQtnWiqnMGUkgAFIXt/h0eHEnTFaWAEOhXwhAsCUkElBcx/HiQetj1qX70F4lWfwGe3P0YFgz9ady2Rdb9uHngz3HOmPewqW4ivq6ZjJ2NI9HoLoJJEJFra8DAnK0YX/YJThmwLKGFDwCMER7Z8Hu0+9RxNqYSPx676kjtgx+PXaW6ALi54m4U2muO/F+uAKhplI44gutbJDS1AXlZ3QWBFqSEAHDaAzZ7KA3N3XdstxeobSKU5HctbosZ6FPIcKC+62gvHY7+orGy/lIcl7MaM0r+GrftLpqE0SUbMLpkAy475ilVxn998w1pHc0Xi9DSZWoUMw2nKCQRqkhBUlS4fipK+giClPABhO/+7Z1du38ozW2Bf6G4HAGfQJB0OPqLxeMJHomx7BxVx12//3Q8+/UdqvbJSZzifCFi5mdQEOw+KKKhJVCsVk0M1wBcjp7e+oaW6PZ6bRPBbmXd3inKDfgDOtzpc/QXDYmZ8Icdr8IqzMLEvOUR29RJAzCi5DvVxly37wzc88miuNmBcmjrZKhtlOCP84U1mwKx9y6dY+9TDZedMLCPCU1tDE1tPfNhQjWC0gIBrhgBc3IwVgOgnp7/ts7YdfIYA6rrCFLokTgBfQoYsl09hUmqZP3JwS05cc/WZXiv5ucRnx+yjVYlJoAxwps/XI271jwvK/MvEWqa4i9+IBAAVWNA7H0qIghAQU5AEBTmRNcIDjWq9/cyVAPICkvTZYi9+wfxiUB1A6G8OJCx3ukFNu9mqGuS8A2AwlzC8AEBuz9Vsv7kIjIzHt31NDa2TMdNA25EjqUOAOBlTgztE72mf6I0eQrxh8/+jHX7zki6L466BAVBXlZkjSD23Ugyx5L7QrizTimECLt/R/waeUE63AFHYacXWLdRwsF6Br8Y2FEONTB8uklCTZxgoXRgVf0luOqbLXjn0A3wMRt2CFORY1Nem8ztd+D172/AFe9+ouniL8kTYE7g2xU0ATg9CdcILIcjY4tVuCAmiGwNoG8xQ00joSVJR2qWC7CGFelIZPcPpaEV2LGfwRthl/f5gX2HlNUPSDVa/IV4fPeT+PuBBThr8BKUtLWgPGuPrD72tg7CR7svxDvbrlBUuEMuWQ5ClkOn2uoZwOS2z3FrzePwkhXLc8/C23kz0CEEot2CgqAgR/2/p2wBQBSorW8xAfVKj9cIKMjp/mJrByIG9cSEAQ0t6tYPSGXqvH3x6pab8eqWmzG8cCPGlXyKows2YWjeZmRZm+CytMEs+NDsyUeLpwC7WoZhc+3x2Fg7EVsbjjN6+pwY3FTzNHLEQITnz+pfwwWNy/BW/nndBIEWKPMBEFCQC5gtDDUNJPvevFwnutX3Ywyol7n7J0Rmrf9u/FA/Bj/UjzF6GhyVMKG7Yy9batNFECSlH+c4gb5FTFaAAhGQH7b7t7Qrd9bFqh+g1lEJh6M1D5fehFah5z0MQUHw8q7rcFnDG3BK6ga1yBYA4eeTDjvQvyQkTj8OOS50a8sU2P6hFOVGPi4RBKhymy6HowefuyZgzqBn8bfCy+MKghPav1BtXNkrZO+hngk4VgvQv5TFPSGgCLZ/c3tyJZisZqB/qQlZjkCopCAA2Q7CgBITzIaHOXE4idMhOPF6wey4guDmmidVG1O2APD50e0+vSAmIXBCkBPDTMnL6n7PHmNAowq2v8UElBUKGFJuwpByE/oUCnzxc7phcXctJmtnaic7xRMEIhlcD0CUgP21PY8C6XCabmFOT+8bUc8c/aY2YwowcnofA78+FRZ3Fqyd2Ri48VSjp5MQ4YKg1lyMOnMhniier9oYivdJxoBDjQS/n6EgB13pTMETAnMgXiB4QpCXHWH3T6Hy3JzMJrdmIMb8K37RFaOY2u+f+M2kXx6uxvQzLPnhmiNp2UFB8HrBbNXHTU6XOHx8Vx3hKDDHBZQXMwh02PMftvs3tiZe3JPD0ZpQk9FiQPzSrybegVxbI4qdB3HNmD/i/847AXOOfQQui/zqT3JQxVJu6wD2S4SyQtbNI08AGlokNLQy7DoAFOURhh9FsNvSa/e3W4GRA4BxRwPrn47ddsGV+syptzIjzt9/3kxg007gm52BtPJEKckTUNMkgRhQkq//6ZFJ6H4OnmNrwjVj/ohZIxZh8ZZ53TQCNVHNVdbpDpwQlBczWM2Bij5rN3ZVOREBVNcz1LcwjB5sUj2vWW2IgIF9gLFHA8P6Ba7w4qQ+RXlA5fHA9HHA7oPA19uArfvia5suO2FQH+M+5Ac/fRgLJt/cI89Da0Ggqq88EH9PKCti+G4ni+jg8/qAbXsllBak5hl9US4weghw3OCuCsWc9IMIGFQW+Of2Apv3BDSDfTXK+qu1FKLYVx/4v7lIxZkGWL//dFyy7HNcPPx5zBqxKKYgWPjpo1i//3RVxlV9FQZPCOqbosfhtqdYjL7dGlDvrz4HmPcTYPIovvgzieDn+7MzAyaCks/30eJfoNZSiFpzER4t+YUm82z3ZePlb2/BJcs+x/Mbb0eLJ69HmxxbE26bdJtqY2pyWs5Y7DB8SoH1z1X83olSE2GDazyudMUvqa4GQUGw5IdrImoEoqTel1WzcBmHnaLe9Bsrfl9ruIrPAdQ3EWo6yo5UX67pKFdljuGCYMbQ1yCQiIf/86Aq/QMaCoDiXMJeb88ihiYBKMrR1/4P9eL3iX3fBacXEjQRxh0N1DUpO0V46POHcNsJtwEgPPTZQ7LnMMG8DDc4roWP2fEv3/VY7v0fdLBA4degIHj521tk9xsP2VvxifMTT/71+YHaZgmd7kA9f5edAsk7OqjbWqn4M06MXZDpvfVyk6M5ctDr78+YPBMhHkvCNr2LW7rvjM9m9UW+0HV/QxsrwHveW7oJgkRY/7S8gmGaRsxbzEC5zhV5tFDxPT6wfbXY0tiChfHaxvuC6s2chcnVRH55gZBSv088Pv0O5xfk4I7+xZjotCt3cqttItSzfiikfYH/S/17PDdR9ziALGrApbZ7MMP6iCJBkCiaagB6oYWKzxhQ3YCGQ/V4ubod9zz1C2qL/1bq0dsEQJCqKmbFQNxSnIOb+hWjn1oaoFITYZx5BX7uuB5ghL+6n8FX/rO6PR9vfhc3Oa5CFjVEfD9RjUCuBpC2AkArFb+hBZ7qenzc3ILbF86nb9Xp1Th6qwAI5e5n2SCXHfeVFOAnpflQZRtV20QAACe14BzrY5hhfSSmIHii8yVs8M+I+DzjBYDWKn7V1fSqOr2mBlwAdOeuZ9l5apgIoahhIoQSTxA0sj64rvVAxHczUgBwFV85XABEJtVMhEhEEwT1rB+ub/0x4jsZIwC4iq8OXADEJ9VNhKAgOM3yHASIeMb9FP7rnxmxbdoLAK7iqwsXAPJIBxMhFil1DJgoWqn4e2uA+mb8JZNVfI663H8dLQOwLGgi5Dnxh0FlyWmgagQaaYVhGoBWKn59c+C2oP31gXJjvW0HC4drAMkxZ6HEzAJQnAcMKif0VSkRUItTBCANNAAtVHy3F9hxANhzkKHdrU6fHE4QvwRUNwDVDQwOK9C3hDC8H+C0K+9T7UAjpegiALRU8XccYKhvgezbiTgcJXR6ge37GHbsBXKygMFlhHQ2ETQTAHqp+ByOETAK3Gnx1XaGTTvVMxGUpisrRXUBoLUXf9dB9oo6vWY+c+8Xq5JVjObeLz740l2mO1SZUIYSaiL0K6aUzEWIhioCQM9AnTkLJS4AEmDu/WIVI7o32X4Y0W/m3i+CC4HECD9FUCPQSEsTQbEA4IE6qYtaiz8IFwLyqaoiL4A/AvijmoFGapsIsgUAD9RJbdRe/EG4EFDO76+jXQCuBNQLNIpmIsjuR+4LahZcUBKLL/dcuzedY2u1+EMhxv7Qm4SAVt83rXIR5Naj0D0OgKv42qDH4ge4JqAWWpkIctFFAHAVX1v0WvxBuBBQFy1MhETRTAD0lnRbo9F78QfhQkAbtDhFiIXqPgCtVXwFse3VANaC6CMT8NELd5ICVwmnt3D1H1i5JGEKk6TTQHQagMFy3tfC5yTHRJDrA1BFAOip4ieb3AIuEDghJLvgw9Ha6RzPRNBNABil4qsgAMLhAqEXofaCD0evU6doJoLmAuDlFazjQD0+8LRjQdX1tEXu+8migQAIhwuEDELrBR+OEcfOVc+wETYXFpYX4qw5Z5NTzruynYByB9CA7wEco2H/ZQBmgbFyP9FOAFwApDF+hsHE2LzDi19rvtNhjB4c3ogvVPJuat7RHQNibLHGQ6xjRKe/vECY+rc76SONx+JozN/uoLUvLxBOZwKdBEDTz5OR5t9N1Um7KLm5C9kIBrZZg67XMaIqvugzm589yKaSxO4FoLpGIIBGvbiAvle7Xy1JOwEAAHMWSt9BPTOAL/xeiAaC4LuXFwjHqtSXbqSdCQCoZgZwVb8Xo7ZpkI7qP5CmGkCSZgDf8Tk9SFYjSEf1H0hTAQAoMgPScuHnTFt4CECJmn0S0MmAJgZsFhg2kIlWNK3yrAGqpPhvZzYKBUFaqv9AmpoAgCwzIN1VfdWFNAMcAMoIOIURbpcktjJnmnV7zkkLb8HZj9nUHi+dUGIapKv6D6SxAAAJ/4jTIt0X/mGYXlraIBD+ktPetjl32gOn6DRmyiJHEJiYkLYCIG1NACCqGZCWqn40cqYtrAOgUqXFhJHAqKrlkzt/p/O4KUsM0yBt1X8gnTUA9DADMmTH74HXgDEFELsvZ9rCxw0YOyWJphGks/oPpLkAYCZhMQGrJdD0DFz4hzG0jsKNudMeuMvA8VOOoCCQQNMJWE0kLDF6TsmQ1iaAFuiQbCSLtV/8A7X1uw0bn4gwdcKlKCoYYNgc1KQ31YhMhLTWAHoDOVkq3UapEMYYvvz2A0hSrz8hzEi4AEhxCvP6Gj0FtHc0Ys++r42eBkcDuABIcUqKB0EQNCoIJ4Ntu78AUso44qgBFwApjsVsR2mRpjUsEqK9oxENzfuNngZHZbgASAOGDZ5k9BQAAIdqdxk9BY7K6H4xSLqybW935/HR/Zluzwvy+sLlGoD29j3yJq0y+2sOwmwPzFPP31+N55zIcA0gTSgtmQ4iYz8uj6fe0PE56sM1gDTB6SxHSfFUHKpZY9gcRNFt2NipzKwqZnXYcAEx6fwBpTRtzBAqA4CNO1j1nkNsNSNhWacHby0OXAeWUnANII0oLjoRLpdxATkMPBYgnLkPsFlOK9tCjP0DoEuPG0LlNivIZgUdN4TKAfopMfYPp5Vt/tlCdrHR8w2HR0WFkWqRgOF4fZ1Yv2ExGpsP6D62w5GDs06+Qfdx1UStSMBZbzCTc4f0EBjd2u3n07t3v3hV968TgT3cPlS4ffFsEtWYR7JwDSDNsFocOGniT1FcqL8m4HLk6T5mqhJp8ScCA/3SuUP6gxZzUgIXAGmIyWTB5OMvxqD+x0PePTDJkZNdrN9gKczcB9gsJYv/CIx+NXchU1THX224AEhTTCYLxo46Ayt+OhlDC1y6jFmQV67LOKnMrCpmZYw9kGw/DOxPNz3GDK++xE8BEsToc+xozyf3zce6OVPxyqZ9eGrDLuxs6oj1ayRFa+dRR+aRKr9/os/VwmHDBWAYokJXg1rb8RMAhtYT4AIgA7CbTbhu3ABcO3YAPjvQiA92HMLavQ34rrYVnT51fE0WSw4slpg3U/cKBCZdwFTynUtMOh9cAHDUgiigEUzum3/kZ21eP1btqUfVmh+wrUF5bRGns78aU0x7GGh8rOcdHsB5WLHvjBc2QbH70gPuA8hwsqxmzDi6FB9dPhl9sx2K+3G5+qk4q7SmT6yHX25l6PAEFv+GrbHNEGIwPNebawAJEs+mNPp5PPLsFiysHIk573yp6P0Rg/ohNzv6HIz+/XWM/c+K9bC6Hnj/04TnErMvPeAaQC/i1IHKqgtZLHbDKxNxtIELgF6E0j2yML8fSM+AA45ucAHQi/j37lpF76VCWTKONnAfQIIYfY6d7Dl3g9uLBSuV3adamN/f8N8vVeIAMg2uAWQ4rR4/3vqhGlNeWosDrfLTeU2CCXm5MR3fnDSGawAZTr/H/pXU+/m55TAJ/GuSqXANgBOTggJ+/p/JcNGeIEafYxtl0wYdgEb/fin092mDeuf3LSr1oxiuAXCiQhQoSMrphpqVWPSv6hJGUhoAe3bV6WB0L8DGA7CrNCcA8APYBmKLsB9PUFWlX8W+Mwq3JMAuRC/V1XzbOUn1P3eT8vDhzIT9F6BhibQkACfZD+J0+36UmTpgph5ayoiXFq1Sqrp4APoWEB+geae8qbAP5RoAW7TqAjCsANgUqLv4gYBgGglGf0EZLVK574yiyWcxegq9CkbCskTbXuTajauztqK/uT3S4k8WW2DjFZawZ1Zfr7QTRQKAvfGGCcATALS/s4pwFXtuzUTNx0lTdrv5Dq0n9gIsBbAjXrsiwY1zHHt1mBEAYg+x59dmK3lVmQbQUjwSgH7lYSTpUt3GSjO+bOY5+nqy6HryMdAd8dpNsNdC0O8yxWyIvhOUvKjMByAxpnNB4Sl6DZRu98e/tGGDBdXm7wEM1aL/dPt76MHfFtCSuQvFhxnol9HaHG1u1XNKh9ekfJRpACxnK4C4tacYk6DSlbLj2DMbnGp0lGlQRYUPhN8YPY/eRvtQ4XYQ+3OkZwTgaHOzntNhYLZNSl5UJADo+gofQF/EatNysAYHt2xHzfZd8Hs8Udu11tTh4A/bULtjN/yeqBenWEAtE5TMtTdAM8YuBbE/GT2P3sTi2SS+fKfp1wS6CGE+gVJzB7IFX9R3PW3tqNm2AzXbd8LTFr1KU6LtAGyj+VNqZP4KAJKJA2BsXbRHfo8X7Y2NABhEnw+ttXWR23k9aKuvB5OkwP/rYtw9x0xTFc+1N7Bh7G8AesjoafQ2dK+d2gAAE/RJREFUXlpASzu8dAwRzWZgrwPYMtzcHH3HA0NT9UGIfj9Enw/NB6Ot20TbAWCIuhbjoTwOQKB1iGZ2hFmNnvZOBEyBsAeMwtq1R24HAMR08wOkI1RFEoDb2btfrT8sCDTxCXB6cvjOv8WH/+GlRaueB3B1pLY+txeSvyusJWAmK28HILAWFaJcAzBL64HIl8WZLVYI5q4TQiaJ8HX2FIpmqxWCqaudJIrwuaOaAZNZFeORi3GgmePeRpn/GBCbDeA1o+fTK2HRndbeju6uM6sj8jFuou0AAJKkvwCgqyqbAEROMCfA6uzuswv/hbraOeK3C5CHfquOkT/T3gdVVPhoxrjFNHPsFUbPpbfBnllZBELUSMEeC9sZ2bedaDsAdZg3/QdZkwwhyR2VrY32xBY2YU+UhZ2QoAgiCtwM4KQ2ApuCqGfkDN6Ozm4/sboiLexE2wEA1hMpDzNMUgBEtz2srvCd3R3xRDD8Fwv84tF8C9wPwElxpOiblM/thSR2XdQimEyw2KyK2wFIygEIJCsAzKaog5sttp5+AHfPijQWqy1xP0AM24rDSQlIhv3vdCCSspBoOwCASbn9DyQpAOjqk3YCqI78UAM/AGEwe2ZNmZK5cjhawx5bbgNwfLTnGtj/Hpjov3LmGI4KXnVaH+2JJn4AQeRaACc1cdorEDUzVhP7/790VaX8Qo8hJF8RiLF1IFwU6VFUPwCFt4vmB4ig9jA6EcCSbj964ZPB8EmTIMAMEbtRUPQZzR4V9TwxWareeMPakkU31MB3zgHyjDoAb2Er81taSBQ8kU9GDcOGVUm9b13xSEqV17VBQA4zSdlk9vVl1voyWL8tZLb389ulv1bNnq3ZZ86qVprRhyZAOBxfQbSBrju5+ykYE06M9r4m9n+MzTdRkhcAJmEdpMhf+qAfQPIHfqGgH8Di6C4kg36A4C8e9ANY7BGvTz+iAbDnVh4LJjwCv3gqCAGZIQBoqm1gi1bfh+umPZaMhzScO5YvPuMH5v7js1Q7upZ83bUnnjKjCx5IqCVJqIXPtpM6ywGUg3BGSZblLxe8/8o3I+G6feG5F36o5phs0cq5AN2P0AxYxsAWrfoMxG6l6yo/C/yMpkRzYGti/7Pk7H9E7zlx2DMbLKC2JgAR9ZTG/QfgbunKjMopKYarsKBnu3374W7tinfOKS2BqyC/RzsAPrCsPLCWyRCEpQBi5cO+ggMnzz0cJaeYu95dOvUrU+tLK6lxiDqXbXO0wgxCJcvfPlbKmXP/jPOT3iHZotUPAezXMZp4APoZrpu2GM+uPgSgOFKjRL/fMtYBg2jpozQHIEjSPoB4iUG2cPU+wkkA0NMP4It+t7IF1H4TBOFtxF78AHAl+q6ZH6dNTOYtf+OZp8z713zEF39a4AfDh9Qw9EnTj+uuWv73pVVMefQoe3b1hXEWPxCozPMqFq2+BVEWPwB4OxOz6xNthyQSgEJRJ7Q2RmKQzeXqpmeEHvn1aBdKTN2EPYhEK7NKUozEjOhU/XNpyfTlL1a/RAfmtUPkCn6a0QEJr9GhC9Z88NLeqnffVXazqSh1ILF8dgsID8dqQNS11ASzOapdn2i7ZM//j4yhRiexkhFMFgtyS0thtlpgy3Ihu7gwYjuzzYrs4iKQYILFYUd2sQq30TIspesrn5P72t3vvDPofalx23pq5lfipDlr0Vz+junQ7jvfX5pQIc9Q6OeVHyBQ+i5pcstKYbKYYTKbkVdWimg7XKLtkkkACkWVnY29uDIPPqpHapUZ3wevfyzdeFqMHOOeVP1zaclbYv2uzdTOC5BkEMcwZ8f5pqJBVWdeKEttZo8tt8Hu/BzAGI2mpgyTNIKuOUVxDkAQVRZszMQgY5BANEf24q9aaV4ttXzNF3/m8T11ONdIzV9VVa2UdfJF/3OOB5JwGYDOuI31ow5XV25VoyMVd+zoiUH6QwvpupM/lvvW9okH31mHJh5pmKGsRXP5zgmH3pL7Hv182vcguk2LOSkkqQSgUFQUAOrYJElD2ADmuk/ua3e9u3Tq+6g7W4spcVKHd4SaGQs+WFYp+8Vrpz0F4B31Z6QAlRyAgJoCIEZikI60gZkuDxxNymON0PhWO/GDvkynAxI+EevekPseETEwdg2i5b7oSZIJQKGoJgBiJgbpxw007yTZttGtK5bc+rnQqsKxAycd+FxoLbp5+WLZlZTp+so6EOYgSiUsnUg6ASgUlb32yccmKx8ai2ne9FfkvlZVtdL8MWv8vRZT4qQuH6PhXrkOQQCg66Z/CGJ/0WJOCZJ0AlAo6gqAGAFBGrMLku86JS8emFDzBPf69z5+oE5H9cSaxxW9LGXfCeA/6s4oQVS0/wG1BYBJMEIA+AG6gq4/XfZNDFVvvJH1b1NjxOqtnMznX1R/bdXKlXly36PrK3wQ2OUAdL7+B4Cgnv0PqC0AROdXSODGIFVhuI/mnazI9Njpkv6+l7n59bq9lP3wmnd2HJJtNgIAXVu5HcCvVJ5SPBj8tk/V7FBVAZDIjUGqQ9IaJa/d9eabA/5FdeeqPR1OerHCVHfu3cvfGqLoZZOy714SqJIAFIr6obt6+wFIWaXgLc6OxQ3k50k+vZxm5qct1PG6opdFk97VqVQPtlNfAKiUpJAwCgqF/nbFmxM+QiO/a5ADAPgXq5t413tvR63mEx29q1Srv7bUFwAxbgzSiBPl3hi0gbX+ozPFSndxjMNNDF8KTfJ9AXpXqTaJqS8ADEgMykP5ypGJNr5txdJZK6l5sJYT4qQfK6l58K/ff/OyRNvHuwFIA1RLAApFo/RdnRODKHFbbB1relpKqMYDpzchgWEtNSee+0/CidC3EqRqCUChaCQA9PYDJGaL3bpiya0bqCVyRRJOr+dLaslPPERYZ/tf5QCgINoIAP0Tg+J+GDzkl5MIiYcIk872v7oBQEE0EQAGJAYNiXdjEA/55STCD9TpODChJqYpELgBiI3Xa05QOQEoFA1LeOmcGET+qMc4POSXI4cPqP7aqjfe6Fm7PkjMG4A0QdUEoFC0EwC6JwZFDwjiIb8cORwkr2mnS3o5agO9r6nXyP4HtBQA+icGRfxQeMgvRwkrTHXn3v3ukqMjPoxxA7AmqJwA1K1rrTo2IDFoHHtmQw8b38iQ3wqWI6soKacnFSynwYhxm5mfNps7Xwv/OWOMAEzWcSqqJwCFopkAMCAxyAJq6Rbea2TILwGYhJzbjRg7kziR8m82KmHjn2iccOfypSd3++ELK4chxg1AqsOwVe0EoFC0reNvcGKQkSG/01je3ofPufgFQwbPIP509gWvTmN5+4wY2wsJX6Ol+2eodwIQaWf/A1oLAAMTg4wM+TUBqKC8nxsxdiYygeVcbWHG6AE9Q4TTPwEoFG0FgIGJQR7mf8CokN/TWMHmB84+f7khg2cgC8+98MNTkK/7xTMWEK6USnGtVNYlzDMgASgUTQUAXVXZBIbvtRwjjDyUrxzJ3vu68lFx2JANYgUul0ph1jFk2wEBY8k1R7cBewnjmf0yp043z1lAuFwqxdfiRCySRmA4nCexZV+dnikJQKFo/xclnf0AgmkqGP4EAKNZFl6QRuJb/0T8QuoHuw6/7pms4LPfnX2RvlWRegFV587++nRW+JmWY4Qu/BekkRjKHF0PBXoIgnUKMiABKBQdRKrOfgCn7QoAx4f+aBAceFgaim3iJNwtDUQuZFeDTohcMrNhcF2hSeccDOu0X5oPi+oLIrjwN0Za+F2MQZZJUeVpxWgYABREewGgd2KQ03pCtEclzIrfSgOx3T8Zf5aGohRR7l5XyFmsaMXvz7lgh6qdco5w/0UX7TmdFXygVn/Bhf+NP7Dwh0Re+F04rKfruv9rlAAUiuYCQNfEIJcdMAlxQ35zYMKNUj9s9p+AP0tD0Y8lH9ZdwqziED+3/bVmqKPPZX2YNak73KwQui38wYiz8IOYBCucuqUAaJYAFIo+XhU9EoOIgCx5O7rrsCDYIp6A58URGAHlyYJnsoLXq2bOrFPcASchqiorm05nhX9X8m7Xwp8gb+GHkm0DBF3UAM0SgELRRwDoERCUbQMEZb+OBYQrWB985Z+ApeKxmIgcWe8PhMPb39k5T9HgHNn0b6drBsPhSbS9FQKuZWXY4j8BL0gjMUjJwg9CBGTZlL+fOLpU1dJHAGidGGQSoIZqJoBwLivCJ/7j8bE4DudIiRUPOo3lPV5VeZXm0poToGr2bO8pUt5T8dqFLvwnxeHoC5UWbsDUVKevqOjjPNdHAGidGJRtV/1wZgrLxVvSaHx+OJbAFKXdMchqLzl7No/515mSc2b/+li42iI9Cy78H9Re+KFka+oLYDCTZglAoegiADRNDLKYAIe63vxQxh6OJdgknoBrWRksYZJmOsu+r4qI1xjXmSoiaTrL+23oz2xhC79ci4UfxGENfPe0gGErXT2tVpvOu6OTExDa+QFykrDnZDCEOfCkOBzf+yfhF1I/OCGgguXUP3LOJX/UZQKcHjx8zqxHKlhOw5GFL07SfuGHkq3Rd0/jBKBQ9BMAWiQGWc2BfzpyFGx4WBqKzeIkdolYoG9gCKcHl4gF124VJ7EnxeEoY9ppghGxafX90y94Tj8BoEVikE67fyT6wLr45pnnv2XYBDgAgJtnnv9WH2ZbYtgEtPgOapwAFIpuAkD1xCAtbbD4iIBYZdTgnDAEdjcAnyFjq++D0jwBKBT9NABA3cQgbb2wsSE8RzPG656eyokMnTt2KxheNGwC6p5CaZ4AFIq+AkAt28Zl0+EcNiqdEIhfMJJqMOl/oW8Nyi5UikMBoEsCUCj6riI1EoOIgCwDd3/gUTpnjCElqjjRofOOPwCGxw2bgFohwjokAIWiqwBQJTFIv1jsSDTBYnnIqME5cRDZgwAMqSKs0sakSwJQKAbo0UkkBqmpaimCPUBnjTLmC8aJC10wrgkE4+IykjZNaYMeCUCh6C8AkgkI0iDkVwYHADHx66M5xuDKfRSAcSZaUs5pvW/TMkIAKE0M0jjkNz6simZWGONk4iQMVQ5yg/A7wyaQ1PG0ztWzYIQAUJoYZGDQD4CtyGoy7piJI4+Orc8DZNwxrbIQYd0SgELRXQAoSgzSLOQyUeguqqz0GzgBjgxo9mwRJN1r2ASUfF91TAAKxZjDdLl+AK2SLhKB0QbMOO5N4ybAUcS5Y5cA+Nyw8eVqrDomAIVijACQkxhkbMgvIIh36hmZxVGHwGfG7jBsArJ9Vvrb/4BRAkBOYpCxIb8f0ozjPzJuApxkoJnjVgFk3Ocn59RKxwSgUAwRAAknBhkb8stA9Nv4zTgpjSTeCRh0R1zicSu6JgCFYtjqipsYZHTIL2ExnTvGOBuSowp03vEbADIuXTixyFVdE4BCMU4AxLN5jA35FcEE47zIHJWR7oJR6cKJbGQ6JwCFYpwAiJUYZBIAp05lnSJBeI5mHrfFuAlw1IRmjttmaLpwPFOWSJcS4JEwTADETAzKtgckpzHwdN9MxOqvglHpwkAsZ7YHFulLPacSioEmABAxMcjwkF+e7puJ0FkV1YamC0c9ztY/ASgUYwVApIAgY0N+ebpvJmNkujAQJaBN/wSgUIwVAOGJQYaH/PJ030zG8HThiN9vYwKAghgrAMITg4yt9LMfnZ3GqYgcfejoeAzAfsPG7+4LMCQBKBRDBUC3xCCL4bv//9LsEzsNnABHB2j2iZ0g3GfYBELvsjAoASgUg52A6PIDuAw89uPpvr0LV+MLAAyJvAMAOA87uQ1KAArFeAEQTAyyGZjww9N9exVUWekHsbsNm4DNEpwJFwDwCZ/CbJIgGDQVnu7bOwmkC39myNgCBQKDmKS8PqZaUzF6AnTDSY0wC8adu/N0314JETGQZFyyl9XcgnnTfzBs/MMYLgAAABZhmyHj8nTfXk3gszcoXVgQtqbCxpMaAkAQthswKk/35QBEd8CIdGEiYza9MFJFAHyl/6C0hKf7cmjGcf81JF3YhI26jxmB1BAATtMHOo8oAnSPzmNyUhYD0oVNbKmu40UhJQQAnXv8HkjMq9+APN2X04X+6cLMRxdP4iZAN5ik15GMn6f7cnoQSBfWRwvwMwNM3sikjgCQJH0WpSi+ytN9OeHQWRXVEKXndRlMEu/XZZwESBkBQBdO+BCilNzNwfGQmA9myy81HYOTvpjNC8Dg0XQMn1RLF014R9MxZJAyAgAA4GOXgGl4IuMT76EZxzVqNwAnnaEZxzVC9P9GswEYAL/vKs36V0BKCQCaNf4T+MTXNencJ26miyse1KRvTsZAF1Q8Cr//a0069/rfptknvK9J3wpJKQEAALhw/BXwivLuDoyHX6yHn01WtU9O5mLGFPjEA6r26fFvxrfjL1K1TxVIOQFARAybjp8En1+dUwGfVAvmH06zK5pV6Y+T8dDMig742THwqyQEPP7vIY0fTVWU2G1YOpJyAgAAqIokurBiMjrdD0Jiyv5oDIDb/zGG2/rRhSfUqztDTqZDsyuakdcyAG7fEsV+KcYY3J4X6OKKUTSbRHVnqA4pKQCC0OxJd6JTOhYe3xdgCX4KjAEe/060uc+gWRWn0qhR+gUYcTIKqqz006wJs+D2TYfXvzVhQcAYg9v3FVo7jqdZJ1yj7SyTw7Di+3JhS9eVwGe5ByahEiYaCMFkB5gAAoPEvBClgxDZZ4B4H82eFP/eQZ2wrnjE8IyvdMZ79i0p8x1lr312NKzCvSBhCsxCGQSygoEAkiCKHkjSj2BYCavnd3TeVHV9CBwOh8PhcDgcDofD4XA4HA6Hw+FwOBwOh8PhcDgcDofD4XA4HA6Hw+FwOAD+Hylc4wk3FZRIAAAAAElFTkSuQmCC;fontStyle=1;fontSize=19;" vertex="1" parent="1">
                    <mxGeometry x="420" y="30" width="175" height="175" as="geometry"/>
                </mxCell>
                <mxCell id="9" value="" style="endArrow=classic;startArrow=classic;html=1;fontSize=20;strokeWidth=3;entryX=0;entryY=0.5;entryDx=0;entryDy=0;exitX=0.5;exitY=0;exitDx=0;exitDy=0;edgeStyle=orthogonalEdgeStyle;" edge="1" parent="1" source="5" target="8">
                    <mxGeometry width="50" height="50" relative="1" as="geometry">
                        <mxPoint x="260" y="300" as="sourcePoint"/>
                        <mxPoint x="310" y="250" as="targetPoint"/>
                    </mxGeometry>
                </mxCell>
                <mxCell id="10" value="" style="endArrow=classic;startArrow=classic;html=1;fontSize=20;strokeWidth=3;entryX=0;entryY=0.5;entryDx=0;entryDy=0;exitX=1;exitY=0.5;exitDx=0;exitDy=0;" edge="1" parent="1" source="5" target="11">
                    <mxGeometry width="50" height="50" relative="1" as="geometry">
                        <mxPoint x="398.75" y="296.25" as="sourcePoint"/>
                        <mxPoint x="398.75" y="162.5" as="targetPoint"/>
                    </mxGeometry>
                </mxCell>
                <mxCell id="12" value="" style="group" vertex="1" connectable="0" parent="1">
                    <mxGeometry x="580" y="240" width="450" height="260" as="geometry"/>
                </mxCell>
                <mxCell id="11" value="" style="rounded=1;whiteSpace=wrap;html=1;fontSize=20;fillColor=#cce5ff;strokeColor=none;arcSize=9;" vertex="1" parent="12">
                    <mxGeometry width="450" height="260" as="geometry"/>
                </mxCell>
                <mxCell id="4" value="Kegiatan" style="shape=image;verticalLabelPosition=bottom;labelBackgroundColor=none;verticalAlign=top;aspect=fixed;imageAspect=0;image=data:image/png,iVBORw0KGgoAAAANSUhEUgAAAQAAAAEACAYAAABccqhmAAAABHNCSVQICAgIfAhkiAAAAAlwSFlzAAAHYgAAB2IBOHqZ2wAAABl0RVh0U29mdHdhcmUAd3d3Lmlua3NjYXBlLm9yZ5vuPBoAACAASURBVHic7d15nBzVdS/w36mqXmYfDZJmBFqQECAkkMS+oxlJbLIBLzBagBhsjGJs4iRgY+ctVmK/2DjP5pkYhx2cYIGEIc+xjRdAEl7iEGwMaAGtSJaQZkZImumeXms5+UNLhpnp7uru2rr7fD8f/tB01b1HaOp01a1z7wWEEEIIIYQQQgghhHDR/VdfHfE7hlqn+B2AqF0hc6DF7xhqnSQA4RtNNaf5HUOtkwQgfGOxMsfvGGqdJADhG4V5QbHnPHzF+Xe7EUutkgQgfPHPV8xuYODqok8k+uYjV55/qwsh1SRJAMIXadR/EkBjCacSgx588PLzznE6plokCUB47oHOzkYQ/kcZTYRJVVc9tPBseYtQJkkAwnOhSOoLANrLaYOYp2WgPOJQSDVLEoDw1INXXXQhQPc40dZASr/+65fNvdGJtmqVJADhmUeuPn+iytbzAI5VAD7Q2Wl7HOCxay9uGvrnLFuU0M0HHAyx5kgCEJ545OrzJ7JFP2GgY+jPI5HMTLttWLoxa+ifDYuRMsyWr10y50tOxVlrJAEI1z18xYUXwaLXAIwo/GFm27fwbNGxYxmAblkAgLRpSW1AicjvAET1euzai5usjPUFBn8RQ277h8lYsM7/81/855v52nr48ovmQrFeBRAGAN20sGNgEABAIHQ0aJfeve7N3zgZfy2QOwDhuAc6OxsfvuKCO82MuY3B/wu5L34AiChQfvLgleflLAt++PKL5oKsn+DIxQ8AadM69jmDkTCwwoHQa47cAYiyrL5hVvjAQEurAmsqEc4kYD4DiwA0FNlUBoSHiXhlNlW3AQDUaPYMha1lAG7HkIsfAPYn0ziYzh77c1hVMl//jw3RMv86NUcSgCho5dJrZpCq3M5a6DJNVSeTqrZAUbT+ndsNZg4XbsF5u2MJJA3z2J8JwNhw6PQv/fbNjX7EU6k0vwMQwfSDZYumQAvfGwrXLdKi4abh3xXZeAx+XfwMRmbII8DhnwGmRp8A8EU/YqpUkgDEB3x/6bWzo5Hw41p9/VmkKDnvENPxAS/D+mDfhgWTecTPDYMv9SGciiYJQAA4vDzXuPboqkh947VQ1LyPhqauI5tIeBXaCIO6MerPs6Y11eNQKp4kAIGVN117uVbX8K9aJGJr4C596KDbIeWVyI6eABho9jiUiievAWvcD2689quRppZf2L34TT2LdKzf7bByMiwLGdMc9TML/oxJVDK5A6hhT9/8kYfCzS23E9l/GZTY3wce5fnbK7GsnvMz07LkC61IkgBq1DM3X/f9cEvrnxVzTjYxiGxi0K2QCmIAA5ncCYBZXmsXSxKAC9Ynk5MUVu4D4woATcM+1gH0A/wuMb0J0BolHf7pjHEU9yq+lTdf97VQc3EXP1sWEvt73QrJlpRuIjvs9d9Q/t2XVC7JmA5bn0xOUix6A6C2Ik5LMmMlWbh3Vkt0m2vBAVh58zXzo02tLxUa6R8u1rMX2XjMrbBs2TeYyvsIAADfem2T/E4XQZ6ZHKawcl+RFz8A1BPhNqjYtGkw/Y2tzK7smLP6hhvqQnUNPy724k8ePOD7xW9ajHiO0X9ROkkATjt821+qEAP36IPZNesHB8taMms0Zp3xrBqO1hdzTjYxiOSB950OpWgH0hmw3OQ7Tm6XHLZxMB3DyOf+UuwmpkUzmyIbHGgLT91w3Rl141rezFfdN1w2EUd8315fR/0BwGDGjv44SglDHgnykzsApzFecqilSUz8U6fuBNRG7cliLv70wABie9/z/eIHgEOpTEkXvyhMEoDDVMaXAXaqVG6yyqHnyx0TeGLJVSeGow1n2jmWmZE88D4G+/aV06VjDMvCoUy28IGiJJIAHDajObrZUHgOCM8CKHvkjIkvyibSK8ppIxqq+yaphb/9zWwWA3t2IXnQ/2f+o3oT8u3vJqkDcMGc+vo9ALpH++xN5gZtMHsiES9k4DYApxdukf56fX/60TNao9tLiUeNRK/K9zlbFtID/UgeeB/Mud+zey2hGxjU87/2E+WRBOCxOUQJABsBbGTm724azHwGhG9h2Io3w4RVFffg8Mo4RXnqhutmHp7PPxJbFlID/UgfOgArR329X5gZfYmU32FUPXkE8BERmbOaot8FeBGAvA+6TFi2sY+L3ktPjSq3DX3ZY1kWMoNxxHv34uDObUi+3xe4ix8A9qcyyFpy7+82uQMIgFmNdS9vjKfvBuH+PIc1oC67CMDqYtrWM+mp5kEdlq7DyGRgZDMI+kP1YNZAf1oG/rwgCcAGL2r7ZzZGvrcpkVkOYFbuo3gBikwA6YGDdZVU7mFYjJ5kSkp+PCKPAAUcq+1nfByjF/iEAIwD6DwmfJqJnzbrMj0b4ulHNg6kp9vth4hMBh4rcNTsooI/fI7tGPzGDOxNJGHKrb9nJAEU4GVtv8L0Yt4DiKcVGQcAjCnhHM8xgJ5ECik9eOMR1UwSQCEe1vYr6fCuAoe0lBBD0QOHfjiQyhSc6SecJ2MAHmDiixRor22KZ/LW9s8YR/GNg+k4cs8lSJfQvafLZDU2NQ5c2XlBMwwr/8CDooBC4VQslX7vRz9bc+KBVEZ+F30gdwCFeF3bn7c//oVDsbhm/vxLDxW8+AHAssCZdF2Tgul/9tGrrSkT2uXe3weSAArwurY/d3980FD4LoficEVHx/iesKGfWOx5VjYTvumqTrMuImt6ek0SQAFe1/aP0l+MCM+TSRccKTEOJiK+5KLz6tgqrZSYs5nw9Vd1+rvqSA2S5y4bvK7tz9dfUF15Zdc2TiVPLqeNyW1jXFkJSeQmdwBlmkOUmNUU2TizMfqdmQ2RuWDciQJlvfjv2v6qcPKpJ+1sUpWyLn4AgKnLM4DHJAE4yIva/qCZMGH8e3NOOWlyqbf+Q7FpUXNDvVQBeUgSgAtmNda9DMbdBQ47WttfsdrGte2/5Lwz29kwHPs9mjFtskwC8JAkAJfMbIx8D4en/ebBCzwJxgUTJnTsW3Dhea1WVnd0HOnCuaeVUusgSiQJwCXu1fb775TTTtl+yTmz2y09G3K67QZGy9wZJ8ldgEfkLYCLFKYXmfI80pZW2+8fIl6w4LLtrWFtumW4tEY/Mz50/lkagOwb72yXQUGXSQJwkZIO7zLrMvkOKaW23xft7eN6Lr34vHpOpaa7vZ4AG7qy6JzZ4XnnzBl4df070U3bdoZjiWTlzGmuIJIAXORSbb+nwnXRgYuuXPDG1FNPPpuIPH1r0QK0fHT2GfhonmPu+eLfehZPNZIE4DbGS6Bcv8PBre2va6zff+HCro0nnnrymSCa53c8wh2SAFymMr5sEs8buaZA8Gr7w3XRgRlnztkw8+w5kfqGhrkAOv2OSbhLEoDLZjRHN7+ZTM7RmL4NxpUAQISXYNCX5jTW+VHbbwA0CPAgAwemnHLSoTMvukBtPa5tgqpp00C42IeYhE8kAXggYLX9GsCtAFoJmHjSjBmvH9cx/iy/gxL+kDqAGtfWMXac3zEI/0gCqHHR+oaKeRUpnCcJoMaFQqE6v2MQ/pExgCqnqMquU+bM2jn9tNPGN489bkK0Lto69PPN515XVjnvqa/9qKz4Np97XVnn3/vND/6ZmQcyydTBrdt2WC/+ct2UshqvAZIAqhSvXasZ3Pv3ACYRUc1cCETUEm2obzljzuk4Y/bp1l/d/dlvatT+N9TV5VLtcmWTR4AqxGvXaib6XiCiLxBR7f4bExQi+oKJvp/w2rXyZTeK2v3lqGIG9d4L4HK/4wiQKw30fcPvIIJIsmKV4bWrp5sW/6VX2wF+7ZW3yzr/hjLHAOwi4K/5pWcepoVLtnjSYYWQO4AqYzDfAZJ/11GQoWG530EEjfyiVBmFcJnfMQQW09V+hxA0kgCqDAOVtciIhwiY6ncMQSMJoPo4vkxX1aCCy7XXHEkAVYYJf/I7hqAi5t1+xxA0kgCqDfOLfocQVBYhsAuw+EUSQJWxgEcByE67I5maoRRYpbn2jKgDWLFiRVkrPq5YsaKiF2+s9L9/pGvJBmPNqu+BcKcX/f3PeaeVdf5mh+IohMHfpYWLN3nUXcWQO4AqpDb33wXg537HESA/15oGvuB3EEEkCaAK0TnLdbWp/1om3I/afhwwGfwdtan/Wjpnue53MEEkpcBV6sgv/Ocza1Y+rJB6mwK+nEFTAFT8hqQFDBKw02K8qFn0qNz25xeIBMBrn5towrgPwJXIvYa+XXEQvaiS8iWad/1WB8KraJH5yzYC+KtcnxvrVmXA8G0HnrLWEyAkta7FDc5FU3t8fwTgtc9NNMl4E8D1KP/iB4AmMH/MZPM/+OXVJzjQXrUb9DuAkjEO+R1CpfM9AZgw7gOjrfCRRWK0mSp/2/F2qw73+x1BqQiSAMrlewLA4dt+d7CLbVcLpop9TGLgPb9jqHRBSABO3PbnIiveFsDk2at4xzHhD37HUOmCkACEj8iiV/2OoVRk8X/6HUOlkwRQ41RNXQvA3f2+3cCwVFIqNnkFhSSAGkeXfXwfQJV3K014hbq6e/wOo9I5Xgdwyy23BOrbJGjxBBEx/wsTzvE7juLwSr8jqAZyByCgkLkShKTfcRQhrmrmc34HUQ0kAQhQ17L3mfkRv+Owi8H306U3Sg2AAyQBCACAZin/ACDhdxwFEWJaRpECL4dUTQLIHjyA+JbNiG3YgMGtW2EMVm6Fqx9oQfd7BHzV7zgKIcbf0VXdB/2Oo1pURQLI7N+P1O49sFJpsGnCTCaR2L4dxmDwv9CCRGnq/zYBb/gdR270a+WVt+/zO4pqUvkJgBmZntHfBqV79nkcTGWjc5briqJ2gxDzO5YRCDHVVG+hFSssv0OpJhWfAMxsBmyN/jthpVIeR1P5aN71W2HRzQjSQiKELFvWx2jhx3f4HUq1qfgEgBwXP4CciUHkp83v/jcwbkcwKgQZzJ8MzV/6st+BVKPKTwDCFdr8xY+D+RZfN9MgZEH0Ca1ryQ98i6HKSQIQOWnzl/wzm3Q1gAEfuu9n4Cqts/tffOi7ZkgCEHmFFnSvURX1XBD9u4fdvqKa2tmhzsVrPeyzJkkCEAXRvOu3qn24jBj3gNm1kmG2zDgR/4Xa2d0lA37ekAQgbKHublOdv/ibA2+9lU7u3PkKW2bcqbbZNBPJP/3pldiGDYbaueQfiSgIg481IRCrAouK0qYPDMzT1w8cVBsbfhUdO75Va24+HVTklwnDMmKxt1I9PXErnT4D4HkuxSvykAQgStVmDiYuSwy+C4B61XDoXbWxIa02Njdr0UgzNLWJNK0ZANgwYjDMuJXNDGRj8biVGIyaGWMaYM31+e9Q8xxPAE8++WRRe+M9+omrXb3dKzaecvcGrE3cbmaz7ebBLHBw1El6dQDaPQ5K2CBjAELUMEkAQtSwyk8AXNG7kQvhqwAkAFpXztls5t70lVRFnueFyMP3BMAw/7ac8y3dyPmZommyJbQQefieAEJdS9eVcxdgGbmvcVZUmQ8sRB6+JwCgzLuAfHcAqurHJBYhKkZgRtCMtavXAtxZ7HnJXbug94++wa3W3PzHlk9+6axyY6tFnSvWaof2x08l4pkAZjHT2SA6e830301ws9/52y7cB8ZviPgl01ReWv9PH5Y5AS4KTCUgw/xbgtJZ7HmWnvsRQFVU2TnGhjM+85MxCvEsVqyziWkmgFmH9sfPBhDloW9Z2IMxVeYJAG5gxg2KYmHO534sCcFFgUkAoa6l64y1q9cVexfAeRKApZJsHz1Erm91sDUBACiIr1QlIbgqMAkAKO0ugI3cYwAgrtlfjkB9qztJEoKjApUAQl1L15nrVr3ODFvP7Wyaedf9I1YijgUXUF5/qzNzgogaHG30WNuIA2gq8qRREwIsa00q3rdxy1Of/rUbsVaLQCUAAADjccBeAgAAEOX8FrMymVsArHAirCAIwre6CWW/BnYlARig/Sg2AQx3JCEYmdgN5mAfpn/8XovU6F4lFFpHSvTRd/7lk684EmyVCNxDH7+4usUM8V4w6u0cn9y5E/pAjrd9RGhon3BqdMnntjgZo9vOvv2hkBU5fqZl8WxizGbCHACzEYAZdT888fXft4WyruwkvN8Iv7b43bPOdaKtZN9WWHp6xM9J0UxFi+xWtNA6gvrE2yv//FdO9FepAncHQJd3DxhrVz0P4CY7x4fb2nInAGbo2czXAHQ7F6GzRvtWN4CzYXEUCN5UhzWJMcnrW3tdaXttfKwjhVtGamDUix8A2DJUM2ucaGZxC4Bbav0OIWC/Xofpa5/uJCg2F4RkxN9+G1Z29LcBFImk2z7zlToHw3PEmXe+MM6yzAcAvsHvWIrRoWX2rpz6x3YAqsNNG4vfPfPAfiNS9l1Osm8bLL20XFJrdwiBTADMTMa6VZsJdLKd4zP7epDuy/2tFBnftqxx2d1POxZgmeZ+7kc3MNMDAMb5HUspHpr81m9OjiQvcbLNt9NNv/rs7lmXlduOmY4hdWCXEyEBAEgNmaoW2U1aZJ1F6uPVNqgYyAQAAOa6VV9mxt/bOdbKZhF/+x3k2sgm1NL0VvOtX57jZHylqNRv/eHaQ5l9K6e83uzU2wAGxRbvPDP9vh4eX25byf1bYWVHv/13QrXdIQQ2AfDa1R0m+E8AQnaOH9y2HWZi9C3BSVVYbW8b29L9175tK13p3/rDfai579W72neci/Lnk1j/t/ek378QG3deuTEZyX6kD+0ut5mikKpV9BhCICYDjYa6untA+Jnd48PHteX8jE2LlAyXNe24VGfe+cK4OZ/98WpmWo0qufgB4Kex8ef/aKDj1wDK2YDRevbQhN84cfEzgGx8f7nNFN+vaShWdnCikTh0kx7ft+7Umx6+0fMgyhDYBAAAsOgxu4eGWlpAau5xKTOVXOZITEWY+7kf3WBZxsZKv+XP5Tt9J877Vu+015g5Uey5zIh/o3f6H/7p/SllP/cDgJk4BMtw79bfLtbTf+N3DMUI7CMAAPDatZpJfbvAON7O8ak9e5A9cCDHp4T6cePn1934ede3m6qWZ3272rVMz1c6tmydUZe4EIVfLVvvZhp+d8/eGdPfN0IO1TVYSPZshWX6t4/pMaRytKX9+I1P3loRE9ECVwcwFHV1GfqaVd8nwpftHB9ua8uTABh6Nv0VAK4mgCPf+lXzrG9HrxHpuGPPGR0dWmbvR1t7tnU1H6hvUfQ2DVY7AOhQemNm+MCa+HGp5/rbT91vRC52sn89fiAYFz8AsElmNnUvgE/4HYodgb4DAAB+6blppmpsg81Y45u3wEqP/g5YCWlm6zilnrpXOP7bUmvf+kHBpoFk3xawZfodyjFqKJrY8uxdjX7HYUewxwAAHN4kkmyPrIbbxuT8zNINNZ5tuMuRwIao9mf9IMvGegJ18QOAqacbZtz04FK/47Aj8AngMLY9GBhuGwNQ7r8Wp/U/dyQkVO8If6Ww9BSM5Kg7EfnONLIVMRhYEQlARfKHAGz9S5OqIdTSnPNzI5GYnH7mu6eUG5N86/svG+vJUfrlPyuTnHX6bY/4PnmrkIpIANR1axrASrvHh8fkrgkAM7KZ9NdLjUW+9YPBSMdgpEcv/AoENklP6iX/nnmlIhIAAJim+bDdY7WmJiihcM7PrVRiUSkxyLd+QDAjOxD8t2xWNh3435OKSQCRhcveIsLrtg6m/IOBZjoTHXjqW7amGwPyrR802cT7sIyM32EUZBmpxtNufGSx33HkUzEJAABg2R8MDLXleQwAwNnsPXbakW/9YGHLgB7r8zsM20wzE+jBwMDXAQxV7GpBie3bYQzmmCCkKay1TRrfvGz5+/namP25f3uAGHeUEG5OqkL7PnXp8bu6Tms9vT6iVsT74lq2ddtWHMhRYJY0iX+300i8sn5v1DSzIwrriFRWomPGb3k6/++ZXyrqDoAu7x6Axc/ZPT6c5y6ADYvIGPy7Qm20jW36PICX7fZZiKrQvidvnxn90NzjLpCLv/LVq0wLTlIb7140RSVNGzExitkkIvMbfsRmR0UlAABgKLYfA7RCE4TSySWF2li3osswwuFuMLba7TefT116/K7miJp7gEJUpOawRfNmnjDqpChLTwV2SbqKSwCh+d2vMPgdO8eSoiA0Js9gYDI9JvWD73QVamfjfVcdtBS6FsDoe5AVoeu01tPLbUME04Unhka9o7P0dNNpNz36Ea/jsaPiEgAAKFC+b/fYvDUBhycI2VonYP13r3kHTIsB5NmJpDC57a9ejaHcS7haemqFh6HYVpkJwDSeAJB7T7Ah1Po6KHW51wQ1k4mLePWK3EUDQ7z5vWt+ScAX7EUpxH8zs4nZpyx9aKzfcQxXkQmAFi7rBegFu8fnGwy0dEMd1Bu/aLetNx649v8tnhB7ye7xQgCHBwMV4v/jdxzDVWQCAABQEROExrTmnSBkJrPL7bYVe+Ledcub3l64fPJBRwYFRe0w9cKDzl6r2ASg8vifgbDXzrGkagg1554gZCYTEzM//McZhdqJPXHvOn1gYB6YsaRh2/QLxyRl92Fhm6Wnmmcue/A6v+MYqmITAHV1GQw8aff4fIuGghmZRDrvEuTHLv6jpxgW/f3xm8dPiJgxuzEIYVj6V/yOYaiKTQAAoBE9ilybAQw/trHABKFk8upcnw2/+I/ibCb01KmbECYu682AqB1WJjE3SIOBFZ0AaF73uwDW2Ts4/2CgmclEYyu/PWIdt1wX/7FmU4nmZ2dvDf7UNBEIzCapivlVv+M4qqITwGHFTBDKX4DHqcwH3gYUuviPakoenPi9mbtlUFDYYujpwCwXVvEJQEXqOdhcLUgJh6E15q7DMVOJ02IrD9+e2b34j5p7nDltwQnmH+0eL2qXlU21zLr5wWv8jgOoggRweLUg/oHd4/PuIGRYREb8q8Ve/JHx4xFpb1fvvSh74rRm3mn3PFG7DN0IxGBgxScAALCKmiDUmneCkB7rX17MxR9tb0d0wgQAADHG/GBhymoO04Dd80VtMjKDZ514yxOtfsdRFQkg3NX9BgF/sHMsESGcZ4IQG5btNRIi48cj0tHxwVgUmvbcFcntKpU3Z0BUOTYpnE36PhhYFQkAAEBF7CNYYLWgvOe2tkJtaPjAN/9wbVGc9eBl6X8vuRNRG4ys7xuJVk0CUHSsBCFp51i1Lv8EoVxCrS2onzwZDdOmjfjmH+6scXzZX842KnrveOEuM5scc/pND33IzxiqJgHQ5d0DAH5o9/h8NQGjCbW2on7yFIAIpNj733bzKfpF8mZA5JM1s//bz/5LSgDrk8lJGxPpH24cTMc2DqZjG+Ppf30nlj7V6eCKxSaKmCA0xvaFfPSbH1T0EoravRfoU09qMncWe6KoDWY2ec70G5/KPVHFZUUngPXJ5CTFojfA+DiAJgBNIHzEVPC79cnkJOdDtC+0YPGvbK8WpKoIjx9fuM3WlmPf/KUg4tanFma5JcxlryYkqpBpKCGOF1yb0i1FJwCFlfsAGu3+eYzCyrcciKksCuhJu8dGx7fnXTEofFxbWRf/sXZUTP3hFekd8mZAjMY0Ujf71XfxjwCMK/J8dmU5wThBMc0nYXO1IBBQN3kS6qdOhdbUDCUUghIKQWtuRsPUqaibOKnsi/+otijOemRe5reONCaqiplNtZ12y4OX+9F3KWMAkTyfNb+zn5tKDcYJh1cLwk+LOSfU3IyGaVPRNHMmmmbORMPUqdDyrB9QqjljLdsFRqK2cFb35TGglASQd/67Gc36Og5wmP0JQkIEgZ5JnufHYGAJCYDfzfcpEed+RPCIul/5GYDdfschhB1qKJI5c9KYHc9dr3heE1B0AiCmN/J9zsBtzJy72N4D1N1tMvif/YxBiHyIVG5raem5a94JOzbdMSnyzHUt02e1qrd6HUcJdwC0psABszYNZj5TUjQO0hTlMTBGbNXkI5MYn/c7COGvcKguefH0cVv/Y/nU1O9uGddx+9y6aUM+XshrV0/3Mp7iXwOmwz8FCpTcEr61cTC1oNSgnEDzut+FYnO1IPcNgvBRdf7i+/0ORHiP1JA5ceyY3Y9ff+K+9XecUP/4h1pObo2MusEtGcyf9DK2ohPAjHEUZ8bKAoeFAXphYzx9p6+PA5b9CUKuIey1mDq1zsU/9jsU4SEiNDQ0HVh29vFb198xBS/feNyki0/QRp899sHTPsm/fyjkRYgAMGI7YzvIwr1Q8QkA+QINg3D/pkRm+YbB9GMK04ucCu+cNZ5G36/bBSolnjep/iAYpU//KwMRvaWQ+WFt/lIZkKwRajiSnj2haec/LGgZP6mJjgNwXJFNtJuxlmsAPO9CeCMQcKS8l5X7jhX5MF5WGV+a0RzdnOvETYPpbzBwjwMxxO30Vypjzar7QbjT6XZt+Lma0hfTops+8Np055adtlYxDhI9q2Pv7r2Ix+KwTHeHVRRVQWNTIyZMnIBINF/JiXe2btuKAwcO2Dr2+omOFI79XOtanHOVaicppdb2hxoiXyEmJ+a8uzqXwFTpEafbLIj4YRXjrxl+8VciPatjy8YtGDg04PrFDwCWaSHWH8O2d7ZBz9or6KxCV/LLz5zkRUdKqbX9JxNlTNI/Bufet7sylyAyr3s9QL93ut0cTCL+C61zyXLq6qqKuv+9u/fCNE3P+zUNE/v27PO834AgQ6FbvOhIKae2/4zGxl5iWgSnkoBLcwnIm8rAQYA/onYu+UcP+vJMPBb3re/YQMXfQJWMgNu8GAxUUGZt/8ymyAYLxrkOPQ648nyspHTbqwWVhLDXsnie1rXkJ671UYMIzkzEqlAdZrzV9cpABQ7U9p/R2NgbagzPB/gbALKlh8O/KP3c3GjRTTEwnnWlbeBNlawLwguWvO5G+35rbMq9j4Lbmlp8nVfmP8Kn3e5Ccaq2/2SizKzGui+bGk4jxiMAEsWFwgcNhe8q7pwiWifLhccA+pkSil5K86r3Nd+EiROg5llG3S2qqmLCT34ojgAACmFJREFUxIKvzaubhav45eemuNmF4nRt/+xodMfMpujtSEY6wLQYjIcAehVAH0a/O4gR4Xky6YI59fV7iozftlDn0l8z8LZT7THhfvWVTR+mS67z7yHZA5FoBKfMOgWtba1QVPeXkFRUBS1jWjD9tOkIhT2rhwkmgmIohqvzA2hTPLOEiZ/OexTjzllN0e+6GYgXzDWrvsiEe8tthkB/qXZ1l/T/oxLrAGqdD3UAQ+1R99OJ1N3tyqsYpVJq+52g6KEnyxoMJMQY9OFSL34hSjDRHM+L3Gpcqaja/jLRlR/rY+ZSJ+S8Z5HVGerq/rmjQQlRCLs3GKgAR2r7C6+jd7S2/80Ng+m/2hTPnL6xj/0bIi6RljK+TsD64s6i36uqdm543lJZ41/4YRG/uHqyGw0rADCrJbqNgG/bPGcWAd9m4vWoz8Q3DqZ52H+B2SdgNLToppiiW1cxYZO9M3iVOlg3jy77eM2WpQnfqZaKW9xo+NiwbqXU9juBrli6V+Pk2cz4OoBcO/nuBGiJ1rVkCV1zjXtFRCL4AjBsy8S38erVjj9+f2DIcv3gYLsC7TUAzly4hGdnNUS7HWnLJfzvq+vMDF9JjFMsoFUh6rXIfF2bt+Q3ROT4P728Bag877zzDvoH7O3r4sJbgP/G+JA2f/ELTjb5gfUAzmhs7N0Uzyxi4hfgRBIIwD4BhdBF3SkA/3/kJ0s9j0UEk2l5PxlqVIcrAx1NACMqOyqhtl8IL2WyGb9DOOrD/PLqE5xscNTSrqDX9gvhFcuygrQugWYp7GhlYM7azqDX9gvhhUQiAebg3Mgy4dNODgYWLO4Oam2/EF4YiOV6SeQTxmRjLC90qjnbi4IeWcxz9ZH/RA0bODDwhz2794RNw5wGoKHM5hKqpu6YOGVitmVMy9lOxOek/kNu7erOYNMCKSqKXfaADg8GOvJ4XdMrLvih0l8D9vX0/bZnT8/FbrR9/MTjfzu2Y6wrbZcinU7jjTfzTpYdwc5rQL1/AJmefTAzGZCqIXp8B8JtRS0ebKi6NYWuWLq3qOBG4f78TlE12OJ0z56e2W61v2/PvjOYOTBD7r29vY62ZxkGkrt2IblrJ8zM4b8mmwZSu9+DMVjUavmaFVY+4URMkgCEbbFY7G0cXjnaFQxujg3EbJZou0vXdfTudy4B6P0DGNy8GXr/aI8UDL3IRw1mfJpXrCj7+pUEIGxLJ9Oub+qSTrjfhx179uxxZBn0od/6bORZKLr4otOpRufMsqfoSwIQtmWzWddL4nRd973sbnBwEH37+8puJ/+3/lCEUOuYotsnB6YJSwIQtukZ3fVB42wm6+vAtGmZ2LZ9W1nv/tkwkNy1s/C3/hGRjvHQGkuZWc8f4bWrO0o48RhJAMI2QzdK2ksyaH3kwszYvn070ul0yW3o/QOIb94Mvd9e/UCkowPR9pKv4ZDF/GelngxIAhBF0E096nYfpmX6tiHgrj/twsGDB8tqw+63PnD04m8vqz8m3M7MJd81SQIQtrHB5Rb9FGSaput9jGbXrl3o6enxrD8nLv4jTjLWPNtV6smSAIRtDG52uw/LtFrc7mMo0zSxZesW7OvxbsEnBy9+AAApXPJgoCQAYRszFz9UXTwv+gBweKLP+g3ry77tL4bTF/8RH+W1K8eWcqIkAGGLaZoJAHUedFXHFhc587Q4uq5jx7s7sGHjhrIG/Irl0sUPABETakn7CPo24ioqi6mbB1H+xB9bsnr2UCQScbyvVDqFvt4+9O7vdaTIpxguXvxHXQXg+8WeJAlA2GIYhmd7detZPRaJlP8ywLIsJJIJDAwM4NChQ0gkXL2xyMmDix8AStpIURKAx7Zu2+p3CCUhkOsDgEf17utt3tdb2qCcaZqwTAuZbAbZbNb3xTw8uviBEq9lSQAes7vHXNA01Td5tlNnOpsOxROVv+eqhxc/UOLGtzIIKGwhpjLWhiy6r8BMCS6Vxxc/wLS2lNMkAQh7qODWcQ52RYFZhbMUnl/8wB41in8t5UR5BBC2sMmezdKzOCgL8Rcv2t6OiLcXP8B0z5H9LYomCUDY4ulgWsVe/oe//T1FWK11dRfa3TsneQQQ9ljefVlYbMkXkz3b1KRe1poAkgCELczsRRXgkc48qTisdGlLsbpp0U1l1WdIAhC2MLF3k3QYntUcVCzCX4TnLf1juc1IAvCYpmoVtyy4qqgAo96r/hjcoKqO74TtOk1Vvfm3JV6pdS5+xImmJAF4rL6h3rt5pw4JhUL2VrhwkKZpnvdZrpZo5JDbfTCwWWVluVPtSQLwWENdw62q5tE3hUMURfH8vbyqqBVVC6CpKp/TlCnpVVwRUpZpdlNXt2MrJ0sC8Ni8K+b9sqO949zm5ubdlfI4oCqq55V5KlTPKg/LoakqH9dQf3DBOOxt0ixHt+4egfD5yMJlbznbpAiUOZ/9t8AlhY56fvWzZ9L5Xvb5sw09r/5y035P+7Rj8+en+9Qzr9K6lixxulW5AxAFNUTIu1UzjmiNRjzvM6gYvFVNGbe70bYkAFFQi2fzAIf02RgK3J2QT9IMpez3/blIAhAFtUTg+Tu55ogm1YAAAPpcuKu7uC2KiyAJQBQ0JgrP1+pviKhhr/sMoGe0ru7H3OxAEoAoqCXsXRHQUfUh1Zf9AYKCwVvVUNSV5/6hJAGIglqi3pfmampNlwMffu6/5DrXl0WSBCAKagyhzes+VVI87zMwGJ9187l/KEkAopBURPVmOfAPIDSEVHK7si6IntHmL37cq84kAYi8FMC7bXOGaarTXK+tDxImbPHiuX8oSQAiL1WFZ/sBDNdaF7K3x3Z1SLPFnjz3DyUJQORVp8GxiSfFamsI+7OThx+I7wjPX/Km191KAhB51Wv+LdHdVh+qjXJgxtNa55In/OhaEoDIqyns3WrAw7U2hCp4eVB7mLBFDUcdm99fLEkAIq9mH+vxWqOeFyB6zZfn/qGk3lrk1erDPICjWuq0ylsXrCj0mfD8xZ4/9w8ldwAir1Yf5gEc1RBRq/cWgPG01tX9pN9hSAIQebWGfSgCOiJSpfMB/H7uH0oSgMirOQLvlgMfJqR4tyW5h3x/7h9KxgBEXk0hjPGrb5WoCucD+P/cP9SoawLyL742yQTuA3AFgCZvQxJC2KEc+BMoVaBOSyFGqG4fwvWfou77fz784xEJ4MjF/wbg/QwwIYR9Su8OkG6zVkpRGXVN59OS7732gR8PP+7IN79c/EIEmWnYv/gBwDKJjezzw3882iDgFWWEJYTwACX6iz9HT4/Yt2C0BCDP/EIEmalDib9f/HmWNeKRX14DClFJLBPK+7sBthxpTl4DClEhKJuGcnAPYDi3a5okACGCihmwDFAmBUrFQKk4AGf3SxmRANQ9mxztQAgRXDIGIEQNkwQgRA2TBCBEDRuZABSSXVmFqEaKMuLaHpkAQnX7PAlGCOEpDtXtHf6zkQkgXP8pKKrcBQhRTRSVKRy+dfiPR58O/Mwd57KRfZ709AmjlQ8KISqEojCH6vZSOHwrdT/wot/hCCGEEEIIIYQQwh//BWniBVsEb6gWAAAAAElFTkSuQmCC;fontStyle=1;fontSize=20;" vertex="1" parent="12">
                    <mxGeometry x="247" y="30" width="170" height="170" as="geometry"/>
                </mxCell>
                <mxCell id="6" value="Lingkungan" style="shape=image;verticalLabelPosition=bottom;labelBackgroundColor=none;verticalAlign=top;aspect=fixed;imageAspect=0;image=data:image/png,iVBORw0KGgoAAAANSUhEUgAAAQAAAAEACAYAAABccqhmAAAABHNCSVQICAgIfAhkiAAAAAlwSFlzAAAHYgAAB2IBOHqZ2wAAABl0RVh0U29mdHdhcmUAd3d3Lmlua3NjYXBlLm9yZ5vuPBoAACAASURBVHic7d17lFTVnS/w7++cqn7y6G6gGxENKL5iHmuCk8RXBrBFIYlGR7iZGIGgNgHESB43uZPMTWcmM5OVO2MibxoUEJEREs3EJKiNQBBxjDom8ZFkUECe3fQb+ll1zv7dP+iOBLq7TtXZ51X1+6zlWgmcPudXdNev9z71PXsDQgghhBBCCCGEEEIIIYQQQgghhMgWpOMkC7cvHJFkGkPMFyjCaIPVKCYqAaMUhBIClyg2Som4CEBR75flg3r/N6MAQGHvn3eB0N37550Aenr/vBNAKwNNdPq/ZjA3wqBGpajZYDRZMbx3sunEka0zt9o6XpcQun3zwXUfJkPdA/ANAMYBKB7s+PaTbalO2UngwyDaEY/HVz/4rft/l049aTeA0292nkXgKQxcAdD5AArSPY93KAHwQTDehUH7wfwugfaTst+N2/F9S6cv7Ul9DiH0WrRkSf4QLvoRM+YBMJx+nYMGcCZFwCNoiN+3dOn9jn7OnTcABlXVLvgqCN8FMDSdqkLEAvA2A78l0OuK1GuW2fXK+snru4MuTGSvRUuW5Bepom0ETE73a9NsAH1eoIb4jU6aQMzR6RhUtX3+BhDuyqSaEIkB+AgBHwF4lsGEPKuo597a+a8S04sg3t2lindtvOnfOoIuVGSPYlX4Y2Tw5nfhepRbSwFUpTrQ0Qjg3u3z/w8x/YvrsqKhB8AegJ41lL1t1U2r3gy6IBFdp+f89m+RxrD/TBmOAADANk3zYw99+4HfD3ZQyhHAl5//8vlKGdUAZ1pI1OQDuAHgG5Rh/LCqdsEBMJ4GYWvNjSv2BF2ciJbTN/wye/O7ZCplVwG4b7CDUjYApYz7AM7TVlb0jAfhfgD3Vz234C0QHo4TPbq8cnlT0IWJKODKwK6s+IZUxzjpTH7OXcKNcCWAB5PMR6tqF266Z/v864MuSYTehYFdmWhsqkOc3AT8oIZSsk0+wF8wmL5QVbvgZRD/YMyeip9XV1eroAsTog+DU87bnYwAtISFstgnwPTUsWsb3rh3+4I7q6urg5jvifA6FNSFiXE01TFOfliPaKglB/AHifHYsWtPvFK1fYFMm8RpjNrArm3S9lSHpG4AxHLnOz0fA2NH1fYFP7/7mQUTgi5GBMswsBZAENF02yRzTaqDUjYAAv1UTz05hvFZ08Tv5z03/5sztswwgy5HBONfvnLPmwBW+31dYqxNlQEAHDSA5uaGWgB1WqrKPYVM9IOy0lF75m2fJzdTc1RB67DFAO3w7YKE3WiMf8XJoSkbwNaZW20CHnNfVe5i4JPM5qtV2+fPDroW4b/q6pmJgtah04hoObydDtjEWE0n4lO1Pgw0f8f8y2yb/uD0eDEY3lhcXDDvR9f8qCvoSoT/vvlgzZVkGHcDuBGnHwceMtjxDqLAHWA+TAY9bxhmjZNh/5kcv6Hn1S7YzYAEXzRgpt+QSn6u5uaa40HXInJbOp9Zr/WsihxDxB+HGXtRPiUQQXPcAIqK87eC0OJlMTlmvGnihVk/ufuvgi5E5C7HDeD0nJUe97KYHDRa2faO2VvumRh0ISI3pRVbJVgrkEPPBfukRMF69p5f3HNF0IWI3JNWA1hdufptItrpVTG5ihkjejqtp+c8Nack6FpEbkn7wRWGWupFIbmOGRfbSWwCy0etwj9pN4Axeyp+DuCAB7XkPGZMn/3UPYuCrkPkjox+21TVLvwGwD/UXUwu6mzuPOtPqJ0KzY9svGWtNNkAhG3dfq9l1ADm7HygJM9KHEGKfxyR2rkNACCiJzfOXPe3AZSTs8K6br/XMlq8Yv3kH7cCtEl3MeI0Zr5t7pNzrw66jlzRt24/M+bD2wU8DQbu4VHJ2kWLluR7eB3HXLxYWgb5SNArlLTUd4IuIlcUq8IfZ7Jphwt96/YHztUd56raBdsA3KyplpzU3xSgl4qZuHL9Hev/6Gc9uSbs6/Z7zdVwhxT9q65CxDkMxXx30EVkuxCs2x8oVy989U3LdwOQJcM8wmx8Pugasl+41+33mobOxz9wfw7RH2Ye+6WffUlWEvJWqNft95rrBlBz48pfAvhvDbX4xlYKbR1tqGuqw6H6wzhy4jDqmurQ2t4Km8O1tH8iyVODrkF4w8m6/V7TMvchQmRCQa3trThU9x4aWxvR0d2BpJVATzKBju4ONLU14VDdQbS0t4CD/94AAEjxlKBryHKhXrffa1oaQHNzw08A7NNxLi+daG1AU1sT1CC/5ZViNLc140jDEXQnu32sbiD0iaAryGohX7ffa1oawNaZW20whXoU0NreilMdJx0fn0gmcPTEUTS2Ng7aMHxQfsvDc4cGWUA2C/u6/V7T9/FHWXIDQIENpwZj2xZaTjZn9LVtHW04Un8Y3T3BjQZKCq3xgV08y4V93X6vOdkc1JGaq2qSVdsX/jsYD+k6py5tnSehXMzpk7aFY03HUDa0FCVDSzVW5lDcHA/A1x+WL2784nm2GbvKiONiWJgA4ouIaCQzCgAMI+JCApRS1APidgNIsEH1SvERg/kowThoEt5CF95Y/6X1YZhLDaigddji7pJTlwM+3W8h7EaDs3X7vab12fNFv1qU3xO39wG4QOd53Tp64qi2+XxhfiEqSsthmnp65yBJwPex+vJjn3/U099SM7bMGF6A4tuYMQmKr4FBl+g4L4MtYhwg0H+zgZfMZGzP+H1jXw/bTsrV1VvyekpPPcjMXwbgeCenNJOANjHWojH+lbA8DKR98Yl7axfcS0CN7vO6cfDYAa0f7xmGifNGjEZBXoHrczlpAAy+b9P/2rDc9cXOUr2zOvY/9QdvMaHuZNB0ELl/QQ4QuAFEtYppm9ltb3t09qNNflzXibCt2+817Q1gxpYZZmnpqLcAXKb73Jnaf+wAWPONPCLCyJKRGFY0zNV5HI4AHnjs849qm1pNWzItv6y84m6Av0FE43SdNxMMtgzQi8S0mRPWYxtnbewIsp5coz0DvXXmVpsJ/6T7vG7EY/r35mRmNLQ0oKG1EezxQ5FEpOf7xKC7nrjr3rKKiv1EWB70mx8ACBRj4G8U8SrkGwfu2jJXnn/wkScPQZy/p3wzgDe8OHcmCvIKPTv3yY421DfVexocUkyu54uznrz30ju3zN7FMGsIGKOjLt0YNIpZrf3if3wpFI/K5gJPGkB1dbVSSj3gxbkz4XaYnkpHdweONR2DUt7c1yLF9W6+/s4nZi9UicTvCPQpXTV5ivi+u7bO/lrQZeQCzx6DXHvTqh0AnvHq/OnIz8vHkMJB7+W41t3TjaONR2DZlvZz28isAczYMiPvi0/MXkOgZX7d4NOFbXx/7n/ODeVIJZt4+hy0odQ3EEzK6hyjSkchP57n6TUSySSONh5FUnMTyM8z0m4AVVuqhuer4p0A3aO1GL8QFVgJLAy6jGznaQNYddOqNwF62MtrOGWQgTEjz/d8JGBZFo5pbALMnBg3YlxaKwTP2LJgSKdKPAPCNVqKCIiylaw25THPV0JRFPu/AJyH8D1kGAYqyipQUTYapuHdS7csC8cbjsGy3Q9+CPRO9eRqx91k2pJp+QWq4ykQPun64oFj2T3ZY9qiwANZW/lQfVXtgmoAD3p9LaeGFBajMO8CNLY1ob2r3ZNrJO0kjjUew9hR58Nw02yI307n8JHl5RuZKLBVbnQiIu0r5/LLl34URFUgYzKYL4TLpe2PN7od6XEniI6A8WvYWDXms+/4uraGL2uhjYmVL4XPWfZUTDOGirIKjC6rcPcGHUTSSuB4U52r5xDIMBxvJPGFzbMXM9GMjC8WMgw0ajvX3rGF/JvL1oCM1wFaAOYrEIp9LagIjEsB3AsTrx7fdsm6Y0+PKfLr6r40gOrJ1ZbBxgKEcBnx4sIhuKD8QhTme/Nv3p3owonmzD/FS1rJXzs5btaWuVcTIduWZ9OSJeG9YwsRK36294ZomPdeJGaeQ7Gi7X41Ad9WQ101ddmLDGz063rpiJkmxow8D2XDyjw5f0d3BxrbMvhlxtxhmz0vpzqsanVVXCm1loi8/ZjDZ8z8mpYTxYuXAnS9lnP5gBlXU6x4hR/X8nU5ZKb4/wahxc9rpqN0aClGjzgPhqE/OtzW3oaTHafS+hoiennrzK2JVMd1Dkt8FYSsWzyUwa+4Psd/XT4RTHN11OMnZp51/JlLP+71dXxtAGsrH6oHeLGf10xXcUERxo4ag3gsrv3cjW0N6Emmkeo1+FepDpmzZc5oEP7eTV1hxGALtrXb9YkMzEO4h/0DITDP9/oivm+IUFO5cgMD/+n3ddMRj+Xh/PKx2p8hYGbUNdVBKWcfDxo2fpbqGIv4ayB4m3UOgEH47eN3Pq5jtDhJwzkCwp5PW4LYEQUcM+8DkPGeSn4wycCYkeehqEDvjWLLtlDffMLJoW9s+PyGdwc74K5H7ypmG1n59Bwzdrk+x1tX5gG42H01wWCF8ft+NcHTTUQDaQBrJy89AqavB3HtdBARRo+owFDN6cHOnk60trcOegwzHk95okLzXiIKYI0y7ymknv6k1EEVCOhnXAuCUcz2aC8vEdg/Ts2Nyx8G8FxQ13eKQCgvq8DQIr0L8zafbEYi2f/9PWZOKNWzLtU5mPEFrUWFBIEbLv3DRY4+/hwUJys0lBMoA7HsbAAgsKL4LAB1gdWQhvLScq0jAWZGfUv/6wgQ4enNX9g8aHhg1pZZF4IxUVtBIaJAT+tZM5A8ffP4gYjO8/L8gQ6P1lY+VM8w5iCEAaH+jCor13pPIJFMoK2fqQAbqddUtMm4HVEe3g7GoKf0nIgiPwKwDStLRwC91ty47FkC/j3oOpwgECrKKrQsBtqntb0NSev9qQAzH9x0x4aUu9UYNiITbEkHMZqbj9fp2a3H4Mg3AGLD09cQeAMAgOaWhm8DcB368INBhPNGjEbc1JcTaD71/qddZNAKkIMRkUGeh0SCwKDHt92/Tc+S2YzINwCQt6OYUDSArTO3JkzizwOU2fY9PjMMszcxqOefr6u7C53dHQD4RFFhXsrlv+dsmTOamQPfWtoLlGdo3P8g+iMAsMr+BgAAKytX7ieF2wBKGX0Ng7x4HOUlo7Sdr/lkM5SilTWfrUm5Tjib5qXaLhwmjJc33v7wm/pOGP2bgMw5MALos/qm5buZwh0VPlNx4RBtW4VZto3jJ487mlcwq6zcK5DI1r16VPRHAAR9v2X6EaoGAABrKlesIMCXJ6F0KBtWqu2moJ1MLpy0blJJygOJztdywRAhcENhUeEmzSeNfgNglHt5+tA1AADgUusBAM8HXYcTBEJ5aTkMw/3zJspSw1W3kXLTSGWprMv+wzCWOJn+OMX7JuSDkbqZht/wAzvHebaicygbQM1VNcn8pHk7IvLJQDwWx8hhI7Wci23+yrUP3zJ47JAoBCvZaNWqihNLtJ6xpaAc0XwK8GyU3+ndfYBQNgAAWDp96Unb7rkZIVtKbCBDi4ehqMD9Ii5scWnM6hh0UxXDcL57bRSw4pWbpm/Su3BsFsSA+3gZBw5tAwCAh29+uDmZNCsBSmthzKCMGj4KRO5/6XBCLZy4euKANwQVQ89e5yFA4E4jX/3YgzNH/hOAPl7GgUPdAABg3fSlDYZhTwV40EdjwyAWi6F0iPtPBZTNFcPtss8N9PcGqMv1RUJCAcs23r7R0fPR6Yl+DLiPl3Hg0DcAAFh1w6qjsRhdRwQ9a8R5qGRoCWIaUoKWsgdcDcZW9jHXFwgBAhow1PpnT06eBTHgPl7GgSPRAABgxeQVdaaJSQB+GXQtgyEilA1zPwpgW026ruaGfgM/hkn97hSkmHGq6xTqW+pxuP4w3qt7D4dPHEF9Sz3aO9Nbj9AXZHxH+9y/TzbEgPt4GAeOTAMAgBWTV7S3tDTcCqKUcdkgDS0ainjM3QK9zCCjhxf0+5dG7C8agG1baG1vwdETh9HU2oSu7i7YygYzw7YtdHV3obGtCUcbjqKnJxy3D4jo1YvfvnCtd1fInhGAl3HgSDUAANg6c6tdU7n8PgBfDXNsuKR4+D6352Dmv6uurj7ne2SWWgdO/zWjraMVRxuOofVUG+wU25MnrSTqWurR2R3sLQQCkmYez9XzzP+AV8mam4BexoEj1wD61Ny44kdKqWsA/CnoWv4CYy8z31pXcuSDAO13dSrF5TtG7J509p+vn7y+uzPR2XS04RhaTrZCsfP3ETOjse0EklbSTWnuEP1w/efWa9n0YxDZMwLwMA4c2QYAAGtvWvlaS0vDR5jxAABvNvlziMEvksItNVNXXLtm6sqf75q8yyKoZW7Pq5hnnvn/J67+bNH1D01aeaLxxEjLzuxNrBSj5dTgaxJ6hYheL7wo/j3vL5RFDcDDOHA2JKUAAHc/v/ADMcXfZtBsgP3ZIYdxBMSb2TQ2rJmy/K2z/7pydeVwzjcPAxgw2dfTOvij72Sg7obmSedXV1er65dN+Rhs9RNmaHkY6ILysTBNz/eHPVNHzMRV6+9Y/0cvL8L7JuSjJdYFH36+3W8O6gj3FFpF4ycf1H4DJ2saQJ+q2qoLQeY8MM0BMMaDS5wE6KdK2Y+NfWn0rlTz2Mr1N61k4MsD/X2qBgAAZNAkhhoDNtaCWduecaNKRqJY84rHg2DTpDs33LFus+cX+s2HLgCsQ15fB/CtAQBsjxvz6QPv6T6tr+3fDzU31hwC8O3qndXfPW43TAb408y4GcBlGZ6yg8G/JdAuEJ7PT5h7l05f6njFGhvqMQPGgA3ACWZeA6YJAGtt2LbtbIMSLQj/5sebH8DpGLCGRGaY9MaBpQE4VT252gJQ2/sf5v9ifqkqMK5i4ApW+ABBjQFoOBmUr1gZBOoG0SlibmDQQQbeg4m3WhtP/HHrzK0Zv1N2zq7de8OGm/cDfFHGL4ZxScZfm+LEfiDg2YvfHvctXy52+opZ8wlAH6/iwFnbAM628jMrW3BGQ/ANgbGBN4HxD75e1wHTg/0Pz0bgPYVF+bd7+5HfOVetiMhC0455FQeO9KcA0UE/CbqC/uhc3XgA/xUvMKfrfM7fkSyKAffxKg4sDcAHz89+5vcADgddx5mKCopgerANeh+D6CnqsSsfufUR/zPI2RQD7uNRHDhnpgDBo20AVwVdBQAYBqFU01qG5yC2QPT9R+9Y94+Oljf3BFdk3QdcHsWBZQTgEyINm11qMmr4KMS9mP8TvZFnmFc/NmP994J78wPZeBPQqziwNACfWKrn1wB8vBF2rrgZw3llo1GoYeWiMxGhjgz++oRRH/jYI3c88qrWk2cmC6cA3sSBZQrgk11f2tU6Zf1NbxPwIb+vHY/FMbR4GIZp3uEYRH8iUmvMkbR8/eQN4XjMEDgdA86uDwE8iwNLA/AT4SWwnw2A64YUDdk8smxkAdk0EeAPMcjNr38mwp9AeD5GeRvX3VHzsrZSNfnds1OL/37vjFLWm5kaUPvJNl+uQ8QlO7f8Ysjkmbu0PvMiDcBPivaC+F4frsTM/HAc9I1nqn7556d+ZmyZYRYaw68E2x9n4MNgjGXw+QSUMyOPDBQrBSLwKSLqZKAFTPuJsI+At/PyzV1rb1076LblQWvqvPByv978fmImdOADlwF6V8WSBuAjVvw6eb2eL/MpAAtfXPzrjWf/VW+i8feIyErLmUgkOdPId+glE8YV0NwA5Cagjwo6jD8C8PLpkTpO0JQ9/bz5c0VC5U0IugavJOy49tcmDcBH2+7f1gOCN6sbM/Ypy/jki9/cFYa78IGxVPwDQdfglaQi7a9NGoDfmLXvcUDAQUOpG/Z+fYf2p8WiJqliXjwCHgrJpKn9tUkD8B25XivwLzCO2gmjcvfXdocqahyUBMc93UwzSD12THu+QW4C+owJh0nfZ9T1dgyVLy3eEfpNU/ySsOIjgq7BKz1WTHt+W0YAPiPFR7Sch9BtkHH7S4t2ebq8VtT02PnZt3Nyrx47T3OSSxqA7xRpeSqQmdW83V/ZsVfDubJKl52vN+ccIt1WXPtrkwbgs5jNx92eg4i+v+eB3Y/qqCfbdFoF3q9yEpBOK1/7a5MG4DOKk6vsKIG7X7h/53d11ZNNDu+9urDLKszan+nORL7x6tMTtY4CsvYfK6yem/VcB1yEgRjwZ8nzCHqn/rLLVBbGgPsoGGhpv0Rr0lEaQAAIcLFKDhmTvjcpX1812SNhxS8PugavdVn5Wl+jNIAAMMHVjridI81iXbVkE0vFsjYG3Cdhx7SuEC0NIAhMrhbkL1J2oa5SsknSjmVtDLhPtzK0vkYJAgWC3UWBbPm+9efWS2oP3DrB31XffdsZqBcRtO54JCOAAJDLReuVUj5u6RMh2bga8Nk0rw4sDSAA7LIB2Jafe3pFSfbtB3AOzasDSwMIArn7KI+HFfs77oyM7FsN+Gy6VweWBhAEhqu7+HkdiUBXFw6x7B8BaF4dWBpAMNw91NEOrQtDZg3KgQageXVgaQA+m7h6YhxAxkEeAnfvqt4VniW4Q4L3TcgHoyToOnww/MDOcdo2dZQG4LOSghJXj6sykf977UVBS0E5sm4/sH5Rfqe++wDSAHxmkulun3dGa+qDchAns3/438tATNvNTmkAPlPs7k41QUYA/cv+TwD6EJG7XyJnkAbgN4arhR2ZOdQbcwTHm80zw8g2LBkBRJUiuOveRMc0lZJdjBwIAfUiNuQeQFQR00Vuvp6hjuqqJavkQgy4j8Y4sDQAnzErVws6GESy/He/cmcEoDMOLA3AZ0R0qZuvNwEtqwpnn9y5CagzDiwNwEfTHps2DHB3DyDRY+jdWCR75M4IQGMcOO3nym/c1H2JzfYiEK4DcCmABIBjxPQrRfzEzjuLte5e6jcvX1/C5itdFUfUObXzUwf2YkfGp5i0+tjlltX1AIBrmOhiYk4yUEcwngFj8577xr/sqsagECrcPWMZIRrjwI6TU5N2csw42vkgCPMxWONg7CWipa3thT99bR4ldRTphzNe3wIAA2/i7eL1Va6buoiJlpz5Zz2tPY6/nsC/f+GBX380nWv2mbSTY9bbB5cB6m4M9v0j+g3BXNppXvhEVL5/vG9CPlpiXQggCej3giC9uKfQKho/+aDrSLijKcC0X3G+cazzlyAsQqpRA+EaBm8ePqTz4JRNHd+Z+uip0O/VdtbrG/jND7h6fQxjops6GcafMvm6SesOFFh/2P8coOYh1feP+ePM1sZC68Cha5fv/8dJyw+Ef26dOzHgPtriwI4aQE9r1z8DmJrmuccA+CfLNA5P2dSxZcrmzmvSrs4nvr0+4qsyqe99nFEDSHbRD8GYnOa1RhP4H5JQh65d/s7Prl9x4G8yubYvcigG3EdXHDhl16z8j1NXKNt4EzpuGIZweuDX65u0ZdIQszO/FWeNMNKZAtiM215avOtn6ZQ0ae07H0r20O9Ix+sL6fSAX778MyA8HcS1A5oCwIRxW8X0/0nrZ6E/KX8obJvucXKcI33D5+LOQ1M2df5gyobO87Wc1wW/Xp/RlXc9Uk0vUojBTvsGXbLHmKflzQ+cMT3Yf+TalQcevO6hdy/Ucl7XcicG3EdXHDjlDwaBKnVc6KyTjgb4m4jx/qCnB369PkK6Q/CzMB96YfELae8rSMxTXF23f+Wk1GKO4Z1QTA9yKAbcR1cc2MnHgF6utZ4HYAYUz5iyqeM1Bi852V682efhpS+vD+ZDnax+BlJ7kNHOYEQZffzIwFiv7o4REAfoVmZ163Ur9v+OgWXd5vgNvk8PcikG3EdTHNjJ0HC4jgs5MJFAGwKYHvjy+pguLIJ5PzhWAzbvAlCW1tcT+NVMrksEVwuQOMb8UWJeE8z0IPdGALriwOFLAoZoeuAJKgGM28DxVWDz64Dh7NEAss1d3hamzZ+nB9etOPDUp1Yd+pT3l8ydGHAfXXHgMO8wE4bpgYdigHENYF4EGEcA3g7YL6H/6QGdNE6p3/hdoRsExMHqc8pWn/NhepB7IwBNceDwjQD6F9T0wB80FjDmALH/B5h/B6K/nB4Q8wu7qndFdy8Ar6cHubAa8Nk0xYGj0gBOy/rpwTDAqISK/QAw7wPo9PSAQZmH/8NF+6cHObQa8Nm0rA4c5inAYLJ6ekAwAeOvTv/HRwCyhk5cvSOePa9P46cHLQXlgJVLMeA+fXHg99ycJFojgP5l//QA46rDF77RxO30IAdjwH10xIGzoQGclu3Tg7CFb/TL8PXl3icAfXSsDhzVKcBgsnx6cPbw2V7WeiLx6FvVVyaCrk2H9KcHVOFys+XI0hEHzp4RQP+ye3rA/FFiY03pqILDOTs9yMEYcB8dceBsbwCn5cr0wOTe4fO+3Jke5GIMuI+GOHDKu6dTNnVk6/jqJQItYfDmIItItNZ5cl4GXiHQMoA3eHKBoPU+mrxz4rRbTFIzgiojqMeBAYCInzxv2rt/6+Yc2XgPwKmrGXx10EV4hYC/zto3P3D60WRYG9/uuDz54SFvB11NIHTEgXNjCiCy1jDzVDzoGgKjIQ4sDUBEWlleS9AlBEdDHFgagIisuJHEELMj6DKC5DoOLA1ARFZprA2UoxmAXq5XB5YGICKrLJ7Dw/9ebuPA0gBEZEkDcB8HlgYgIqss1hp0CYFzGweWBiAiqzSXPwHo5TYOLA1ARJaMAOA6DiwNQERWqdwDcL06sDQAEVkj4jICcBsHlgYgIqtUpgCu48DSAERk5XQMuI/LOLA0ABFJEgP+M1dxYGkAIpIkBvxnruLA0gBEJEkK8H1u4sDSAEQkSQN4n5s4sDQAEUkSAnqfmziwNAARSRIDfp+bOLA0ABFJMgI4g4s4sDQAEUkSAz6DiziwNAARSRIDfp+bOLA0ABFJEgM+g4s4sDQAEUkSAz6DiziwNAARORIDPkfGcWBpACJyJAZ8jozjwNIARORICvBcmcaBpQGIyJEGcK5M48DSAETkSAjoXJnGgaUBiMiRGPC5Mo0DSwMQkSMjgH5kGAeWBiAiR2LAJ+tL9wAAA/tJREFU/cgwDiwNQESOxIDPlWkcWBqAiByJAfcjwziwNAARORID7keGceCY7jr89si1DUGXMKi5L7path0P/nWTpkq88dVXRvh6PYkBD2j4gZ3jCsZPPtidzhfJCEBEisSAB5RRHFgagIgUSQEOLJM4sDQAESnSAAaWSRxYGoCIFAkBDSyTOLA0ABEpEgMeWCZxYGkAIlJkBDCIDOLA0gBEpEgMeBAZxIGlAYhIkRjwwDKJA0sDEJEiMeBBZBAHlgYgIkViwIPIIA4sDUBEhsSAU0p7dWBpACIyJAacUtpxYGkAIjIkBZhaunFgaQAiMqQBpJZuHFgagIgMCQGllm4cWBqAiAyJAaeWbhxYGoCIDBkBOJBmHFgagIgMiQE7kGYcWBqAiAyJAaeWbhxYGoCIDIkBO5BmHFgagIgMiQE7kGYcWBqAiASJATuWVhxYGoCIBIkBO5ZWHFgagIgESQE6l04cWBqAiARpAM6lEweWBiAiQUJAzqUTB5YGICJBYsDOpRMHlgYgIkFGAGlIIw4sDUBEgsSA05BGHFgagIgEiQE7l04cWBqAiASJAachjThwzMs6/DD3xbRXQo6Ur74yIugSQkFiwGlIIw4sIwARehIDTpvjOLA0ABF6EgNOm+M4sDQAEXqSAkyf0ziwNAARetIA0uc0DiwNQISehIDS5zQOLA1AhJ7EgNPnNA4sDUCEnowAMuAwDiwNQISexIAz4DAOLA1AhJ7EgNPnNA4sDUCEnsSAM+AwDiwNQISexIAz4DAOLA1AhJrEgDPmKA4sDUCEmsSAM+YoDiwNQISapAAz5yQOLA1AhJo0gMw5iQNLAxChJiGgzDmJA0sDEKEmMeDMOYkDSwMQoSYjABccxIGlAYhQkxiwCw7iwNIARKhJDDhzTuLA0gBEqEkM2AUHcWBpACLUJAbsgoM4sDQAEWrFZlfQJUTZ0FQHOGkA7RoKESIjFptBlxBdhGSqQ5w0gEMaShEiI0e7He90Lc6mcCDVIQ4aANfqqEWITLx+6iNBlxBZhkEvpDwm1QHK5rUAbC0VCZGmn9Z/ForlVlUGGMpcluqglP+yu2YNfZMYq/XUJER6DnWPxZMnPhN0GZFDBq0a/ek/vpHqOEettSyvaDFAO9yXJUT6Vhy+Gy+3TQy6jOgg2t6ueLGTQx01gK0zKTEiXjiNgeWQ6YDwWZJj+Na+72JL3a2wZTowGIsMLDtv1LDpl0x/p8fJF1C6V5j8+KkrieluEN0IxjgAQ9I9h3hforUu6BIiZVzBYUwfVYtPDHsNowvqUWQEmxM43mgFen0Q2qFwGAbVGrZaM/oz774ZbEFCCCGEEEIIIYQQQgghhBBCCCGECMr/B4SnHs+ZIKjSAAAAAElFTkSuQmCC;fontStyle=1;fontSize=20;" vertex="1" parent="12">
                    <mxGeometry x="40" y="30" width="170" height="170" as="geometry"/>
                </mxCell>
                <mxCell id="13" value="Ilustrasi Dasar Sistem" style="rounded=1;whiteSpace=wrap;html=1;labelBackgroundColor=none;fontSize=22;fillColor=#1ba1e2;strokeColor=none;fontStyle=1;fontColor=#ffffff;" vertex="1" parent="1">
                    <mxGeometry x="635" y="130" width="340" height="60" as="geometry"/>
                </mxCell>
            </root>
        </mxGraphModel>
    </diagram>
</mxfile>